<svg viewBox="0 0 500 500" xmlns="http://www.w3.org/2000/svg">
    <g id="freepik--Floor--inject-39">
        <path
            style="fill:#f5f5f5"
            d="M399.86,256.37c83.31,48.1,83.75,126.08,1,174.18s-217.39,48.1-300.7,0-83.75-126.08-1-174.18S316.55,208.28,399.86,256.37Z"></path>
    </g>
    <g id="freepik--Window--inject-39">
        <polygon style="fill:#e0e0e0"
            points="373.55 89.55 373.25 195.82 379.17 199.23 379.47 92.96 373.55 89.55"></polygon>
        <polygon
            style="fill:#f0f0f0"
            points="379.47 92.96 379.47 92.96 379.17 199.23 384.31 196.25 384.59 95.92 379.47 92.96"></polygon>
        <rect style="fill:#e0e0e0" height="6.83" transform="translate(109.23 371.7) rotate(-60)" x="376.51"
            y="87.84"></rect>
        <polygon
            style="opacity:0.2"
            points="379.45 97.73 379.47 92.96 373.55 89.55 373.54 94.32 379.45 97.73 379.45 97.73"></polygon>
        <polygon style="opacity:0.2"
            points="379.45 97.73 383.6 95.34 379.47 92.96 379.47 92.96 379.45 97.73"></polygon>
        <rect style="fill:#e0e0e0" height="6.83" transform="translate(109.23 371.7) rotate(-60)" x="376.51"
            y="87.84"></rect>
        <polygon style="fill:#f0f0f0"
            points="302.39 48.46 307.53 45.47 307.23 151.74 302.09 154.73 302.39 48.46"></polygon>
        <polygon style="fill:#f5f5f5"
            points="302.09 154.73 307.23 151.74 455.48 237.34 450.34 240.32 302.09 154.73"></polygon>
        <path
            style="fill:#e0e0e0"
            d="M296.5,38.25l160.07,92.42-.34,119.86L296.16,158.11ZM450.34,240.32l.3-106.27L302.39,48.46l-.3,106.27,148.25,85.59"></path>
        <polygon style="fill:#f5f5f5"
            points="296.5 38.25 301.64 35.26 461.71 127.68 456.57 130.67 296.5 38.25"></polygon>
        <polygon style="fill:#f0f0f0"
            points="456.57 130.67 461.71 127.68 461.37 247.54 456.23 250.53 456.57 130.67"></polygon>
    </g>
    <g id="freepik--Shadows--inject-39">
        <path
            style="fill:#ebebeb"
            d="M219,298.21l11.36-6.55,32.81,19.08a1.44,1.44,0,0,1,0,2.49l-8.47,4.89a5.75,5.75,0,0,1-5.77,0L219,300.7A1.44,1.44,0,0,1,219,298.21Z"></path>
        <path
            style="fill:#ebebeb"
            d="M109.45,318.44l47.05-27.16a2.08,2.08,0,0,0,0-3.6L115,263.58a2.06,2.06,0,0,0-2.09,0L64.86,291.34a2.08,2.08,0,0,0,0,3.61l40.42,23.49A4.15,4.15,0,0,0,109.45,318.44Z"></path>
        <path
            style="fill:#ebebeb"
            d="M205.75,323.71c17.46,10.08,17.55,26.43.21,36.51s-45.57,10.08-63,0-17.56-26.43-.21-36.51S188.29,313.63,205.75,323.71Z"></path>
        <path
            style="fill:#ebebeb"
            d="M265.39,227c9.66,5.57,9.71,14.61.11,20.19s-25.2,5.57-34.85,0-9.71-14.62-.11-20.19S255.73,221.41,265.39,227Z"></path>
        <path
            style="fill:#ebebeb"
            d="M367.4,312.93c17.46,10.08,17.55,26.42.2,36.51s-45.56,10.08-63,0S287,323,304.37,312.93,349.94,302.84,367.4,312.93Z"></path>
        <path
            style="fill:#ebebeb"
            d="M219,439.06l17.47,10.13a8.15,8.15,0,0,0,8.15,0l44.88-25.56a2,2,0,0,0,0-3.54l-21.92-12.94L219,435.53A2,2,0,0,0,219,439.06Z"></path>
        <path
            style="fill:#ebebeb"
            d="M363.05,404.14l12.22,7.09a5.73,5.73,0,0,0,5.71,0l34.42-19.73a1.43,1.43,0,0,0,0-2.47L400.08,380l-37,21.67A1.44,1.44,0,0,0,363.05,404.14Z"></path>
        <path
            style="fill:#ebebeb"
            d="M100.29,370.73l32.32,19a.79.79,0,0,1,0,1.35l-14,8.81a3.15,3.15,0,0,1-3.28.05l-30.66-18a.78.78,0,0,1,0-1.34Z"></path>
    </g>
    <g id="freepik--Table--inject-39">
        <path
            style="fill:#e6e6e6"
            d="M250.24,160.23H245.8c0,19.11.69,82,.69,82h0a.76.76,0,0,0,.45.63,2.41,2.41,0,0,0,2.16,0,.76.76,0,0,0,.45-.63h0S250.24,179.34,250.24,160.23Z"></path>
        <path
            style="fill:#e6e6e6"
            d="M241.28,151.62h-4.45c-3.82,19.76-6.3,82-6.3,82h0a.77.77,0,0,0,.45.63,2.41,2.41,0,0,0,2.16,0,.77.77,0,0,0,.45-.63h0S237.8,171.11,241.28,151.62Z"></path>
        <path
            style="fill:#e6e6e6"
            d="M254.76,151.62h4.45c3.81,19.76,6.3,82,6.3,82h0a.81.81,0,0,1-.46.63,2.41,2.41,0,0,1-2.16,0,.78.78,0,0,1-.44-.63h0S258.24,171.11,254.76,151.62Z"></path>
        <path
            style="fill:#f0f0f0"
            d="M271.92,151.05h-.47c-.9-2.6-3.09-5.08-6.59-7.1-9.36-5.4-24.49-5.4-33.8,0-3.47,2-5.63,4.49-6.5,7.09h-.44v2.7h0c0,3.54,2.37,7.08,7,9.78,9.37,5.41,24.5,5.41,33.81,0,4.65-2.7,7-6.24,6.94-9.78h0Z"></path>
        <path
            style="fill:#f5f5f5"
            d="M264.86,141.26c9.37,5.41,9.42,14.18.12,19.58s-24.44,5.41-33.81,0-9.41-14.17-.11-19.58S255.5,135.86,264.86,141.26Z"></path>
    </g>
    <g id="freepik--Plant--inject-39">
        <path
            style="fill:#ebebeb"
            d="M259.75,133.27H236.29c0,7.7,3.6,14.23,4.71,16.17a1.82,1.82,0,0,0,.15.27l0,.09h0a4.93,4.93,0,0,0,1.67,1.49,11.4,11.4,0,0,0,10.33,0,4.45,4.45,0,0,0,1.89-1.93C256.25,147.32,259.75,140.87,259.75,133.27Z"></path>
        <path
            style="fill:#f5f5f5"
            d="M256.28,128.46c4.6,2.66,4.62,7,.06,9.61s-12,2.65-16.59,0-4.62-6.95-.05-9.61S251.69,125.81,256.28,128.46Z"></path>
        <path
            style="fill:#e0e0e0"
            d="M246.75,130.24a33.84,33.84,0,0,0-3.38-14.49,12.36,12.36,0,0,1-1.61-4.41c-.1-1.57.76-3.35,2.3-3.66a3.28,3.28,0,0,1,3.16,1.51,9.39,9.39,0,0,1,1.25,3.47c1.16,5.43,2.13,11,1.4,16.51a6.91,6.91,0,0,1-.38,1.86,1.74,1.74,0,0,1-1.34,1.07,1.29,1.29,0,0,1-1.06-.42A2.69,2.69,0,0,1,246.75,130.24Z"></path>
        <path
            style="fill:#fff"
            d="M248,130.68h0a.19.19,0,0,1-.17-.21,42,42,0,0,0-3.49-20.56.2.2,0,0,1,.1-.26.2.2,0,0,1,.25.1,42.3,42.3,0,0,1,3.52,20.76A.19.19,0,0,1,248,130.68Z"></path>
        <path
            style="fill:#ebebeb"
            d="M235.33,122.06c-1-.64-2.21-1.33-2.52-2.5a2.66,2.66,0,0,1,1.19-2.8,4,4,0,0,1,3.13-.42,8.37,8.37,0,0,1,2.89,1.45,19.12,19.12,0,0,1,4,3.8,20.57,20.57,0,0,1,3.18,5.72,22.55,22.55,0,0,1,1.14,4.13c.17,1.11.51,3-.65,3.68a1.68,1.68,0,0,1-1.69,0,3,3,0,0,1-1.14-1.32,12.81,12.81,0,0,1-.6-1.67,15.87,15.87,0,0,0-3.57-5.85A26.17,26.17,0,0,0,235.33,122.06Z"></path>
        <path
            style="fill:#fff"
            d="M247.17,133.78h0a.23.23,0,0,1-.28-.18,23,23,0,0,0-12.11-15.55.23.23,0,0,1-.1-.31.22.22,0,0,1,.31-.11,23.45,23.45,0,0,1,12.36,15.88A.22.22,0,0,1,247.17,133.78Z"></path>
        <path
            style="fill:#ebebeb"
            d="M258.29,119.67c.84-.88,1.8-1.84,1.81-3.06a2.67,2.67,0,0,0-1.87-2.4,4,4,0,0,0-3.13.38,8.39,8.39,0,0,0-2.43,2.13,19.69,19.69,0,0,0-2.89,4.69,20.78,20.78,0,0,0-1.62,6.34,21.86,21.86,0,0,0-.06,4.28c.11,1.12.26,3,1.56,3.4a1.67,1.67,0,0,0,1.62-.45,3,3,0,0,0,.78-1.57,14.76,14.76,0,0,0,.16-1.76,15.78,15.78,0,0,1,2-6.57A26.32,26.32,0,0,1,258.29,119.67Z"></path>
        <path
            style="fill:#fff"
            d="M249.8,134h0a.25.25,0,0,0,.23-.25,23,23,0,0,1,7.77-18.11.23.23,0,1,0-.3-.35,23.44,23.44,0,0,0-7.94,18.49A.23.23,0,0,0,249.8,134Z"></path>
    </g>
    <g id="freepik--Furniture--inject-39">
        <polygon style="fill:#e6e6e6"
            points="148.03 286.71 152.15 289.1 152.13 284.34 148.03 286.71"></polygon>
        <polygon style="fill:#787878"
            points="152.03 261.31 152.03 261.26 152.03 261.26 152.03 261.26 152.03 261.31"></polygon>
        <rect style="fill:#cfcfcf" height="46.23" x="132.01" y="249.7"></rect>
        <polygon style="fill:#cfcfcf"
            points="151.97 238.15 111.93 261.27 111.93 261.27 151.97 238.15"></polygon>
        <path
            style="fill:#e6e6e6"
            d="M152.13,284.34l0,4.76,4.28-2.47-.16-55.94L107.59,258.8l.16,55.94,4.28-2.48V307.5l36-20.79Zm-40.2-23.07h0l40-23.12.05,18.14-40,23.12Zm.06,23.11h0l40-23.12h0v.05l.06,18.09-40,23.11Z"></path>
        <polygon
            style="fill:#f5f5f5"
            points="152.09 279.4 152.03 261.31 152.03 261.26 112 284.38 112 284.38 112.05 302.51 152.09 279.4"></polygon>
        <polygon
            style="fill:#f5f5f5"
            points="152.02 256.29 151.97 238.15 111.93 261.27 111.93 261.27 111.98 279.41 152.02 256.29"></polygon>
        <polygon style="fill:#e0e0e0"
            points="107.59 258.8 65.09 234.1 65.25 290.04 107.75 314.74 107.59 258.8"></polygon>
        <polygon style="fill:#f5f5f5"
            points="107.59 258.8 156.28 230.69 113.77 205.99 65.09 234.1 107.59 258.8"></polygon>
    </g>
    <g id="freepik--Pictures--inject-39">
        <polygon style="fill:none"
            points="86.39 120.69 46.75 143.58 46.84 173.88 86.48 150.99 86.39 120.69"></polygon>
        <polygon style="fill:#f0f0f0"
            points="86.39 120.69 86.48 150.99 90.15 153.12 90.05 118.58 86.39 120.69"></polygon>
        <polygon style="fill:#f5f5f5"
            points="46.84 173.88 46.85 178.12 90.15 153.12 86.48 150.99 46.84 173.88"></polygon>
        <path
            style="fill:#e0e0e0"
            d="M94.48,110.93,42.3,141.05l.13,44.73L94.6,155.66ZM46.85,178.12v-4.25l-.09-30.29,39.64-22.89,3.66-2.11.1,34.54Z"></path>
        <polygon style="fill:#f5f5f5"
            points="94.47 110.93 90.8 108.79 38.63 138.92 42.3 141.05 94.47 110.93"></polygon>
        <polygon style="fill:#f0f0f0"
            points="38.63 138.92 38.76 183.65 42.43 185.78 42.3 141.05 38.63 138.92"></polygon>
        <polygon style="fill:none"
            points="152.03 82.83 112.39 105.71 112.48 136.01 152.12 113.12 152.03 82.83"></polygon>
        <polygon style="fill:#f0f0f0"
            points="152.03 82.83 152.12 113.12 155.79 115.26 155.69 80.72 152.03 82.83"></polygon>
        <polygon style="fill:#f5f5f5"
            points="112.48 136.01 112.49 140.26 155.79 115.26 152.12 113.12 112.48 136.01"></polygon>
        <path
            style="fill:#e0e0e0"
            d="M160.11,73.06l-52.17,30.12.13,44.74,52.17-30.13Zm-47.62,67.2V136l-.09-30.3L152,82.83l3.66-2.11.1,34.54Z"></path>
        <polygon style="fill:#f5f5f5"
            points="160.12 73.06 156.44 70.93 104.27 101.05 107.94 103.19 160.12 73.06"></polygon>
        <polygon style="fill:#f0f0f0"
            points="104.27 101.05 104.4 145.78 108.07 147.92 107.94 103.19 104.27 101.05"></polygon>
        <polygon
            style="fill:#e0e0e0"
            points="73.8 132.2 84.61 140.71 84.63 149.02 48.68 169.78 48.65 161.47 55.51 147.86 61.66 152.63 59.48 159.39 62.64 153.39 73.8 132.2"></polygon>
        <path
            style="fill:#e0e0e0"
            d="M62,136.39c1.69-1,3.07-.2,3.07,1.75A6.73,6.73,0,0,1,62,143.43c-1.69,1-3.07.19-3.08-1.75A6.74,6.74,0,0,1,62,136.39Z"></path>
        <polygon
            style="fill:#e0e0e0"
            points="139.44 94.33 150.25 102.84 150.27 111.16 114.32 131.92 114.29 123.6 121.15 109.99 127.3 114.77 125.12 121.53 128.28 115.53 139.44 94.33"></polygon>
        <path
            style="fill:#e0e0e0"
            d="M127.63,98.52c1.69-1,3.07-.19,3.07,1.75a6.7,6.7,0,0,1-3,5.29c-1.69,1-3.07.2-3.08-1.75A6.77,6.77,0,0,1,127.63,98.52Z"></path>
    </g>
    <g id="freepik--character-2--inject-39">
        <path
            style="fill:#ffa8a7"
            d="M312.46,219.9c0,10.62-3.2,22-10.12,30.21-1.63,1.93-4.49,2.67-7,3.18a3.93,3.93,0,0,0-1.27.4,1.16,1.16,0,0,0-.61,1.1c.08.49.58.81,1,1a8.06,8.06,0,0,0,3.88.61,6.13,6.13,0,0,1-2.79,2.4,16.32,16.32,0,0,0-3.09,1.78,3.37,3.37,0,0,0-1.31,3.13,3.57,3.57,0,0,0,1.91,2.21,8.58,8.58,0,0,0,8-.26c4.48-2.82,25.73-28.4,24.47-45.71Z"></path>
        <path
            style="fill:#FF8700"
            d="M327,201.9h-1.38a11.46,11.46,0,0,0-10.83,7.67L309.73,224c7.81,4.17,16.89,1.34,16.89,1.34Z"></path>
        <path
            style="fill:#37474f"
            d="M327,201.9h-1.38a11.46,11.46,0,0,0-10.83,7.67L309.73,224c7.81,4.17,16.89,1.34,16.89,1.34Z"></path>
        <path
            style="fill:#FF8700"
            d="M357.63,252.21c-.78-7.7-1.32-12.93-1.32-12.93s.78-25.12-4.34-36.61l-25-.77c-12.71,10-10.87,26.37-10.68,38-.18,3.51-.25,7.31-.24,11.26A52.89,52.89,0,0,0,357.63,252.21Z"></path>
        <path
            style="fill:#ffa8a7"
            d="M357.09,226.14a41.07,41.07,0,0,1,16.3,27.07c.34,2.5-1,5.13-2.3,7.31a4.26,4.26,0,0,0-.55,1.21,1.17,1.17,0,0,0,.41,1.19,1.57,1.57,0,0,0,1.45-.1,8,8,0,0,0,3.05-2.47,6.22,6.22,0,0,1-.08,3.67,16.33,16.33,0,0,0-.74,3.49,3.37,3.37,0,0,0,1.45,3.07,3.57,3.57,0,0,0,2.92.06,8.61,8.61,0,0,0,5.14-6.11c.9-5.22-3.93-38.13-17.65-48.76Z"></path>
        <path
            style="fill:#455a64"
            d="M341.78,195.26a24.06,24.06,0,0,0,11.13-16.4,9.4,9.4,0,0,0-.43-5.56,5,5,0,0,0-4.92-2.71,10.83,10.83,0,0,0-3.92-7.69,14.67,14.67,0,0,0-8.12-3.25,23.35,23.35,0,0,0-8.78,1c-2.82.83-5.61,2.05-8.55,2-1.16,0-2.33-.24-3.5-.2a4.09,4.09,0,0,0-3.12,1.35,3.77,3.77,0,0,0,0,4.08,11.32,11.32,0,0,0,3.08,3.09,3.63,3.63,0,0,0-1.73,3.72,4.68,4.68,0,0,0,1.36,2.4,21.34,21.34,0,0,0,2.75,2,41.37,41.37,0,0,1,2.37-8.63,11,11,0,0,0,7.63,3.22,13.13,13.13,0,0,0,8.73-2.56,28.37,28.37,0,0,0,2,7.77c1.09,2.4,2.62,5.88,5.74,5.23Z"></path>
        <path
            style="fill:#ffa8a7"
            d="M338.38,197a18.46,18.46,0,0,1-9.11,1.77v1.7a12,12,0,0,1-.65,3.39,2.54,2.54,0,0,0,.08,1.61,3.44,3.44,0,0,0,2.09,1.82,6.7,6.7,0,0,0,2.82.21,13.31,13.31,0,0,0,9.19-5.23v-9.64A10.58,10.58,0,0,1,338.38,197Z"></path>
        <path
            style="fill:#f28f8f"
            d="M340.25,197.48a10.37,10.37,0,0,0,2.55-4.1v-.79a10.58,10.58,0,0,1-4.42,4.37,18.46,18.46,0,0,1-9.11,1.77v1.7a6.59,6.59,0,0,1-.1,1.09,23.24,23.24,0,0,0,4.62-.7A14.45,14.45,0,0,0,340.25,197.48Z"></path>
        <path
            style="fill:#ffa8a7"
            d="M349.61,182.08a3.33,3.33,0,0,0-3.36-.18,9.82,9.82,0,0,0-2.76,2.18c-3.12.65-4.65-2.83-5.74-5.23a28.37,28.37,0,0,1-2-7.77,13.13,13.13,0,0,1-8.73,2.56,11,11,0,0,1-7.63-3.22,41.37,41.37,0,0,0-2.37,8.63c-.06,2.79-.13,5.57-.2,8.36a14,14,0,0,0,.6,5.47,8.81,8.81,0,0,0,4.76,4.59,18.25,18.25,0,0,0,6.63,1.26h.44a18.46,18.46,0,0,0,9.11-1.77,10.58,10.58,0,0,0,4.42-4.37,7.75,7.75,0,0,0,.91-3.34,4.55,4.55,0,0,0,5.14,0,5.29,5.29,0,0,0,2-4.67A3.54,3.54,0,0,0,349.61,182.08Z"></path>
        <path style="fill:#37474f"
            d="M322,182.56a1.56,1.56,0,1,1-1.56-1.55A1.56,1.56,0,0,1,322,182.56Z"></path>
        <path style="fill:#37474f"
            d="M334.74,182.56a1.56,1.56,0,1,1-1.56-1.55A1.56,1.56,0,0,1,334.74,182.56Z"></path>
        <polygon style="fill:#f28f8f"
            points="326.62 183.06 326.62 188.76 322.7 187.34 326.62 183.06"></polygon>
        <ellipse style="fill:#f28f8f;opacity:0.5" cx="336.17" cy="186.36" rx="2.75"
            ry="2.24"></ellipse>
        <ellipse style="fill:#f28f8f;opacity:0.5" cx="318.9" cy="186.36" rx="2.75"
            ry="2.24"></ellipse>
        <path
            style="fill:#f28f8f"
            d="M327,191.66l5.74-2.1a3.18,3.18,0,0,1-.52,3,3.1,3.1,0,0,1-2.83,1.11A3.32,3.32,0,0,1,327,191.66Z"></path>
        <path
            style="fill:#cf6666"
            d="M327,191.66l5.74-2.1a3.18,3.18,0,0,1-.52,3,3.1,3.1,0,0,1-2.83,1.11A3.32,3.32,0,0,1,327,191.66Z"></path>
        <path
            style="fill:#37474f"
            d="M369.31,333.25a7.74,7.74,0,0,1-2.36,4.58A10,10,0,0,1,361,340.4a6.39,6.39,0,0,1-7.58-6.09c-.05-.37-.06-.74-.08-1.1a15.69,15.69,0,0,0,.08,2.74A6.39,6.39,0,0,0,361,342a10,10,0,0,0,5.92-2.57,7.57,7.57,0,0,0,2.41-5.88C369.35,333.47,369.32,333.36,369.31,333.25Z"></path>
        <path
            style="fill:#FF8700"
            d="M356.67,330.91a12.24,12.24,0,0,1,6.49-1.53,8.62,8.62,0,0,1,3.7.66,5.31,5.31,0,0,1,2.5,2.6,5.3,5.3,0,0,0,0-.69c-.21-2.92-2.27-5.36-3.06-8.17a32.42,32.42,0,0,1-.68-5.4,10,10,0,0,0-2-5.39l-11.56,2.77a4.49,4.49,0,0,0-.07,3.4c.36,1.1.94,2.12,1.29,3.22a15.05,15.05,0,0,1,.35,5.95,27.23,27.23,0,0,0-.19,6c0,.21.09.41.13.61A6.91,6.91,0,0,1,356.67,330.91Z"></path>
        <path
            style="fill:#fff"
            d="M366.86,330a8.62,8.62,0,0,0-3.7-.66,12.24,12.24,0,0,0-6.49,1.53,4.58,4.58,0,0,0-.42,8.5,7.29,7.29,0,0,0,4.78,1,10,10,0,0,0,5.92-2.57,7.67,7.67,0,0,0,2.41-5.19A5.31,5.31,0,0,0,366.86,330Z"></path>
        <path
            style="fill:#37474f"
            d="M332.58,326.22c-.93,1.06-2.48,1.25-3.79,1.78-2.68,1.07-4.44,3.61-6.72,5.38a13.59,13.59,0,0,1-14.78,1,4.9,4.9,0,0,1-2.39-2.63,3.07,3.07,0,0,0-.09,1.38,4.69,4.69,0,0,0,2.48,2.86,13.59,13.59,0,0,0,14.78-1c2.28-1.77,4-4.31,6.72-5.38,1.31-.53,2.86-.72,3.79-1.78a3.71,3.71,0,0,0,.82-2.51,5.82,5.82,0,0,0-.08-.73A3.38,3.38,0,0,1,332.58,326.22Z"></path>
        <path
            style="fill:#fff"
            d="M320.82,331.33a7.42,7.42,0,0,0-3.41-3.63,13.85,13.85,0,0,0-4.86-1.42,25.33,25.33,0,0,0-2.89-.18l-.26.11a11,11,0,0,0-3.28,1.88,3.79,3.79,0,0,0-1.31,3.39,4.66,4.66,0,0,0,2.48,2.86,13.58,13.58,0,0,0,13.88-.38A5.38,5.38,0,0,0,320.82,331.33Z"></path>
        <path
            style="fill:#FF8700"
            d="M332.94,321.07a18.55,18.55,0,0,1-.79-4.24,2.67,2.67,0,0,0-.11-.93c-.1-.29-.49-.72-.8-.74l-11.31.36c-.38-.17-.82.24-1,.62a3.43,3.43,0,0,0-.2,1.24,8.23,8.23,0,0,1-3.35,5.66,24.32,24.32,0,0,1-5.71,3.06,25.33,25.33,0,0,1,2.89.18,13.85,13.85,0,0,1,4.86,1.42,7.42,7.42,0,0,1,3.41,3.63,5.38,5.38,0,0,1,.35,2.63c.3-.19.61-.36.9-.58,2.28-1.77,4-4.31,6.72-5.38,1.31-.53,2.86-.72,3.79-1.78a3.71,3.71,0,0,0,.82-2.51A11.42,11.42,0,0,0,332.94,321.07Z"></path>
        <path
            style="fill:#ffa8a7"
            d="M357.63,252.21a52.89,52.89,0,0,1-41.55-1.09c0,26.29,3.58,59.71,3.91,65.25,4.77,4.75,11.08,2.09,11.21,0,.51-16.88,5.79-50.62,5.79-50.62,5.67,25.24,14.24,48.62,16,52.23,1,2.12,11.14,3.41,10.69-3.74C363.39,309.08,359.67,272.25,357.63,252.21Z"></path>
        <path
            style="fill:#455a64"
            d="M357.63,252.21a52.89,52.89,0,0,1-41.55-1.09,538.12,538.12,0,0,0,1.79,57.95c7.92,5.37,15.53,0,15.53,0,0-17.21,3.45-39.79,3.45-39.79,2.85,20.81,11.74,42.17,11.74,42.17,11.14,2.47,15.45-3.71,15.45-3.71Z"></path>
        <path
            style="fill:#37474f"
            d="M334.62,271.36a50.89,50.89,0,0,0,.24,13.85c.94-9,2-15.93,2-15.93-4.43-.12-10.87-3-12.09-4.3A13.29,13.29,0,0,0,334.62,271.36Z"></path>
        <path
            style="fill:#FF8700"
            d="M347.56,202.53l4.41.14h0a8,8,0,0,1,5.47,2.4l10.08,10.32c-1.1,9.92-10.43,11.85-10.43,11.85C345.69,217.71,343.89,208.22,347.56,202.53Z"></path>
        <path
            style="fill:#37474f"
            d="M347.56,202.53l4.41.14h0a8,8,0,0,1,5.47,2.4l10.08,10.32c-1.1,9.92-10.43,11.85-10.43,11.85C345.69,217.71,343.89,208.22,347.56,202.53Z"></path>
        <polygon style="fill:#e0e0e0"
            points="299.19 243.66 297.96 244.53 297.87 243.52 299.19 243.66"></polygon>
        <polygon style="fill:#e0e0e0"
            points="300.69 260.04 299.45 260.91 299.36 259.9 300.69 260.04"></polygon>
        <polygon style="opacity:0.30000000000000004"
            points="299.19 243.66 297.96 244.53 297.87 243.52 299.19 243.66"></polygon>
        <polygon style="opacity:0.30000000000000004"
            points="300.69 260.04 299.45 260.91 299.36 259.9 300.69 260.04"></polygon>
        <path
            style="fill:#fafafa"
            d="M301.77,261.9h0a1.16,1.16,0,0,1,.07.31c0,.39-.17.61-.47.57a.71.71,0,0,1-.23-.06l0,0H301l0,0h-.09l0,0h-.05l0,0h0l0,0h0l0,0h0l0,0h0l0,0h0l0,0v0a.21.21,0,0,1,0-.06h0l0,0,0,0h0l0-.06h0l0,0v0h0l0-.06h0l0,0h0v-.07h0v0h0v0h0v0h0v0h0v0h0v-.05h0v0h0v0h0v0h0v0h0v0h0v0h0v0h0v-.06h0v0h0v0h0v0h0v0h.06l0,0h0l0,0H301l0,0h0l.05,0h0l0,0h0l0,0h0l.08.07h0l0,0h0l.06,0,.06.06h0l0,0h0l0,0h0l.05.07,0,0h0l0,0,.09.16,0,0v0a.59.59,0,0,1,0,.08h0Z"></path>
        <path
            style="fill:#37474f"
            d="M299.56,264.61h0l0,0h0l0,0h0l0,0h0l-.06,0h0l-.05,0h0l0,0,0,0h0l0,0h0l0,0,0,0h0l0,0,0,0h0l-.05-.05h0l-.05-.05h0v0l0,0,0,0,0,0v0l0,0,0,0h0l-.05-.06h0v0l0,0h0l0,0,0,0h0a.86.86,0,0,1-.07-.1h0v0l0-.05,0,0,0,0h0v0a.75.75,0,0,1-.07-.12h0a.41.41,0,0,1-.05-.09h0l0-.07h0a.3.3,0,0,0,0-.08h0v0l0-.05h0l0,0v0h0l0,0v0l0,0v-.25h0v-.07h0s0-.05,0-.08h0s0,0,0-.07h0v-.17h0v-.06h0a.2.2,0,0,0,0-.07h0V262h0v-.09h0v0h0v-.06h0l0,0h0l0,0h0v0h0l0,0h0l0,0h0l0,0h0l0,0,0,0,0,0,1.61-1.13h0a.52.52,0,0,0-.11.1h0l0,0h0l0,0v0h0l0,0h0l0,0v0h0l0,0v0h0l0,0v0h0l0,0v0h0v.06h0a.11.11,0,0,0,0,0v0h0a.13.13,0,0,0,0,.06v0h0V261h0v.07h0v.17h0s0,.07,0,.11h0s0,.05,0,.07v0h0v0h0v0h0v0h0v0h0l0,.07h0v0h0l0,.08h0l.09.21h0l0,0h0l.06.12h0l.12.19h0l0,0h0c.1.14.2.28.31.41h0l.16.17h0l0,0,0,0h0l.06,0h0l0,0h0l0,0,0,0h0l0,0h0l0,0h0l.05,0h0l.08,0h0l.1.06h0l.08,0h0l.07,0h.07l0,0h.1l.05,0h.57l0,0h0l0,0h0l-1.6,1.12,0,0h0l0,0h0l0,0h0l-.05,0h-.74l-.06,0h0Z"></path>
        <path
            style="fill:#455a64"
            d="M302.17,263.55l0,0a1,1,0,0,0,.36-1,3.13,3.13,0,0,0-1.64-2.32,1,1,0,0,0-1,0,.52.52,0,0,0-.11.1h0l0,0v0l0,0v0l0,0h0l0,0v0l0,0v0l0,0v0l0,0v.08a.11.11,0,0,0,0,0v0a.13.13,0,0,0,0,.06v.17h0v.18s0,.07,0,.11h0s0,.05,0,.07v.11h0v.07h0l0,.07h0v0l0,.08h0l.09.21,0,0h0l.06.12h0l.12.19,0,0c.1.14.2.28.31.41h0l.16.17h0l0,0,0,0h0l.06,0h0l0,0,0,0,0,0h0l0,0h0l0,0h0l.05,0h0l.08,0h0l.1.06h0l.08,0h0l.07,0h.07l0,0h.1l.05,0h.57l0,0Zm-.39-1.63a1.16,1.16,0,0,1,.07.31c0,.39-.17.61-.47.57a.71.71,0,0,1-.23-.06l0,0H301l0,0h-.09l0,0h-.05l0,0h0l0,0h0l0,0h0l0,0h0l0,0h0l0,0v0a.21.21,0,0,1,0-.06h0l0,0,0,0h0l0-.06h0l0,0v0h0l0-.06h0l0,0h0v-.07h0v0h0v0h0v0h0v0h0v-.09h0v0h0v0h0v0h0v0h0v0h0v0h0v0h0v-.06h0v0h0v0h0v0h.11l0,0h0l0,0H301l0,0h0l.05,0h0l0,0h0l0,0h0l.08.07h0l0,0h0l.06,0,.06.06h0l0,0h0l0,0h0l.05.07,0,0h0l0,0,.09.16,0,0v0a.59.59,0,0,1,0,.08h0v0h0Z"></path>
        <path
            style="fill:#fafafa"
            d="M300.42,245.49h0a1.36,1.36,0,0,1,.08.32c0,.38-.17.6-.48.57a.84.84,0,0,1-.23-.07l0,0h0l0,0h0l0,0h-.05l0,0h-.05l0,0h0l0,0h0l-.05-.05h0l0,0h0l0,0h0l0,0h0v0l0,0,0-.05h0a.1.1,0,0,0,0-.05v0h0a.43.43,0,0,1,0-.07h0l0,0v0h0a.14.14,0,0,1,0-.06h0v-.11h0v0h0v0h0v0h0v-.07h0v0h0v0h0v0h0v0h0v0h0v0h0v0h0v0h0v0h0v0h0v0h0l0,0h0v0h.09l0,0h0l0,0h.45l.05,0h0l0,0h0l0,0h0l.09.06h0l0,0h0l.06.05.06.07h0l0,0v0l0,0h0l.05.06,0,0h0l0,0,.09.15v0h0v0l0,.08h0Z"></path>
        <path
            style="fill:#37474f"
            d="M298.2,248.21h0l0,0h-.06l0,0h0l-.06,0h0l-.05,0h0l0,0,0,0h0l0,0,0,0,0,0,0,0h0l0,0,0,0h0l-.06-.05h0l-.05-.05h0l0,0,0,0,0,0,0,0h0l0,0h0l0-.06h0l0-.05h0l0,0,0,0h0l-.07-.1h0l0,0,0,0,0,0,0,0v0h0A.75.75,0,0,0,297,247h0l0-.08h0l0-.06h0a.25.25,0,0,1,0-.07h0v0l0,0h0v-.07h0v-.07h0v-.29h0v-.07h0a.17.17,0,0,1,0-.07h0v-.25h0v-.06h0v-.06h0v-.16h0v-.05h0v-.05h0v-.05h0v0l0,0h0v0l0,0h0l0,0,0,0v0h0l0,0h0l0,0,1.6-1.12h0l-.1.09h0l0,0h0l0,0v0h0l0,0h0l0,.05h0l0,.05h0v.06h0v.06h0a.09.09,0,0,1,0,.05h0a.11.11,0,0,1,0,.05v0h0v.09h0v.07h0v.06h0s0,.07,0,.1v.08h0a.43.43,0,0,0,0,.11h0s0,0,0,.08l0,.05h0v0h0v0h0v0h0v0h0v0h0a.64.64,0,0,0,0,.07v0h0l0,.08h0a1.24,1.24,0,0,0,.1.2h0v0h0a.75.75,0,0,0,.07.12h0a1.18,1.18,0,0,0,.11.19h0l0,0h0a3.15,3.15,0,0,0,.31.41h0l0,0h0l.17.16h0l0,0,0,0h0l.05,0h0l0,0h0l0,0h0l0,0h0l0,0h0l0,0h0l.05,0h0l.08.05h0l.1.06h0l.08,0h0l.07,0h0l0,0h.81l0,0h0l-1.6,1.12,0,0h0l0,0h0l0,0h0l-.05,0h-.68l0,0h0l-.06,0h0Z"></path>
        <path
            style="fill:#455a64"
            d="M300.82,247.15l0,0a1,1,0,0,0,.35-1,3.13,3.13,0,0,0-1.63-2.32,1,1,0,0,0-1,0l-.1.09h0l0,0,0,0,0,0v0l0,0h0l0,.05h0l0,.05v.14a.09.09,0,0,1,0,.05v0a.11.11,0,0,1,0,.05v.24h0s0,.07,0,.1v.08a.43.43,0,0,0,0,.11h0s0,0,0,.08l0,.05v.06h0v0h0v0h0v0h0a.64.64,0,0,0,0,.07v0h0l0,.08h0a1.24,1.24,0,0,0,.1.2v0h0a.75.75,0,0,0,.07.12h0a1.18,1.18,0,0,0,.11.19l0,0a3.15,3.15,0,0,0,.31.41l0,0h0l.17.16h0l0,0,0,0h0l.05,0h0l0,0h0l0,0h0l0,0,0,0h0l0,0h0l.05,0h0l.08.05h0l.1.06h0l.08,0h0l.07,0h0l0,0h.81Zm-.4-1.64a1.36,1.36,0,0,1,.08.32c0,.38-.17.6-.48.57a.84.84,0,0,1-.23-.07l0,0h0l0,0h0l0,0h-.05l0,0h-.05l0,0h0l0,0h0l-.05-.05h0v0l0,0h0l0,0h0l0,0h0v0l0,0,0-.05h0a.1.1,0,0,0,0-.05v0h0a.43.43,0,0,1,0-.07h0l0,0v0h0a.14.14,0,0,1,0-.06h0v-.11h0v0h0v0h0v0h0v-.07h0v0h0v0h0v0h0v0h0v0h0v0h0v0h0v0h0v0h0v0h0v0h0l0,0h0v0h.09l0,0h0l0,0h.45l.05,0h0l0,0h0l0,0h0l.09.06h0l0,0h0l.06.05.06.07h0l0,0v0l0,0h0l.05.06,0,0h0l0,0,.09.15v0h0v0l0,.08h0l0,0h0Z"></path>
        <polygon
            style="fill:#e0e0e0"
            points="292.56 243.56 287.28 247.27 287.05 244.75 295.45 238.87 295.93 244.2 292.56 243.56"></polygon>
        <polygon
            style="fill:#ebebeb"
            points="293.58 254.73 285.18 260.62 284.17 249.45 287.28 247.27 292.56 243.56 293.58 254.73"></polygon>
        <polygon style="fill:#e6e6e6"
            points="289.46 271.22 297.86 265.33 301.45 268.45 293.05 274.34 289.46 271.22"></polygon>
        <polygon
            style="fill:#f0f0f0"
            points="297.86 265.33 297.24 258.59 295.93 244.2 295.45 238.87 298.82 239.5 299.19 243.66 297.87 243.52 297.96 244.53 298.15 246.64 299.57 247.75 300.69 260.04 299.36 259.9 299.45 260.91 299.64 263.02 301.06 264.13 301.45 268.45 297.86 265.33"></polygon>
        <polygon style="opacity:0.1"
            points="289.46 271.22 297.86 265.33 301.45 268.45 293.05 274.34 289.46 271.22"></polygon>
        <polygon style="fill:#e0e0e0"
            points="297.86 265.33 289.46 271.22 288.85 264.48 297.24 258.59 297.86 265.33"></polygon>
        <polygon
            style="opacity:0.2"
            points="297.86 265.33 297.24 258.59 295.93 244.2 295.45 238.87 298.82 239.5 299.19 243.66 297.87 243.52 297.96 244.53 298.15 246.64 299.57 247.75 300.69 260.04 299.36 259.9 299.45 260.91 299.64 263.02 301.06 264.13 301.45 268.45 297.86 265.33"></polygon>
        <path style="fill:#fff"
            d="M291.85,272.47l-1.08-.94,1.55-1.09h0a1.11,1.11,0,0,1-.09,1.76Z"></path>
        <path
            style="fill:#FF8700"
            d="M292.69,272.69l1-.73a.32.32,0,0,1,.38,0h0a.31.31,0,0,1,0,.48l-1,.73a.3.3,0,0,1-.37,0h0A.3.3,0,0,1,292.69,272.69Z"></path>
        <path style="fill:#fff"
            d="M296.11,267.75l1.68-1.17,1.08.93-.5.36a1.85,1.85,0,0,1-2.26-.12Z"></path>
        <path
            style="fill:#FF8700"
            d="M299.57,268.12h0a.31.31,0,0,1,0,.48l-1.16.81a.3.3,0,0,1-.37,0h0a.31.31,0,0,1,0-.48l1.16-.81A.32.32,0,0,1,299.57,268.12Z"></path>
        <polygon style="fill:#fff"
            points="296.92 251.17 299.69 252.45 299.71 252.75 296.95 251.47 296.92 251.17"></polygon>
        <path style="fill:#fff"
            d="M297,252.21l0,.3a.55.55,0,0,0,.33.47h0l-.09-1h0A.19.19,0,0,0,297,252.21Z"></path>
        <path style="fill:#fff"
            d="M296.52,246.82l0,.3a.6.6,0,0,0,.33.48h0l-.08-1h0A.2.2,0,0,0,296.52,246.82Z"></path>
        <polygon
            style="fill:#455a64"
            points="287.44 259.04 286.19 259.92 285.18 260.62 285.59 261.05 285.87 261.34 288.85 264.48 293.64 261.11 294.09 260.8 295.75 259.64 297 258.76 297.24 258.59 293.58 254.73 287.44 259.04"></polygon>
        <polygon
            style="fill:#37474f"
            points="292.56 243.56 292.84 246.58 292.92 247.42 293.02 248.53 293.04 248.83 293.31 251.79 293.39 252.63 293.49 253.74 293.52 254.04 293.58 254.73 297.24 258.59 296.82 253.94 296.79 253.64 296.69 252.53 296.61 251.69 296.35 248.74 296.32 248.44 296.22 247.33 296.14 246.49 295.93 244.2 292.56 243.56"></polygon>
    </g>
    <g id="freepik--character-1--inject-39">
        <path
            style="fill:#263238"
            d="M199.76,186.1a14.61,14.61,0,0,0-13-17.16,16.55,16.55,0,0,0-9.82,2.17,16,16,0,0,0-7.69,10.44A13.42,13.42,0,0,0,173,193.79C181.63,191.35,191.1,188.54,199.76,186.1Z"></path>
        <path
            style="fill:#ffa8a7"
            d="M204.44,226.61,209.21,240l10.69-4.59a12.93,12.93,0,0,0,6.14-5.48l.25-.43a12.87,12.87,0,0,1,4-4.29,36.21,36.21,0,0,0,3.26-2.47,1.16,1.16,0,0,1,1.54,0h0a1.17,1.17,0,0,1,.27,1.41,14.26,14.26,0,0,1-3.8,4.61l2.35.19a9.31,9.31,0,0,0,5.29-1.18l3.51-2a1.14,1.14,0,0,1,1.68.79h0a1.14,1.14,0,0,1-.17.82l-.5.75a3.38,3.38,0,0,0-.53,1.54h0a8.42,8.42,0,0,1-2.42,5.26l-.42.42a8.48,8.48,0,0,1-4.48,2.35l-1.54.27a21.13,21.13,0,0,0-8.77,3.77l-13.21,9.69a7.46,7.46,0,0,1-10.87-2.26l-9.69-16.61Z"></path>
        <path
            style="fill:#ffa8a7"
            d="M159.72,233.19a41,41,0,0,0-16.3,27.07c-.35,2.51,1,5.13,2.29,7.31a4,4,0,0,1,.55,1.21,1.13,1.13,0,0,1-.41,1.19,1.54,1.54,0,0,1-1.44-.1,7.9,7.9,0,0,1-3-2.47,6.14,6.14,0,0,0,.08,3.67,17,17,0,0,1,.74,3.49,3.39,3.39,0,0,1-1.45,3.07,3.58,3.58,0,0,1-2.92.06,8.6,8.6,0,0,1-5.15-6.11c-.89-5.22,3.94-38.13,17.66-48.76Z"></path>
        <path
            style="fill:#a66e6e"
            d="M204.44,226.61,209.21,240l10.69-4.59a12.93,12.93,0,0,0,6.14-5.48l.25-.43a12.87,12.87,0,0,1,4-4.29,36.21,36.21,0,0,0,3.26-2.47,1.16,1.16,0,0,1,1.54,0h0a1.17,1.17,0,0,1,.27,1.41,14.26,14.26,0,0,1-3.8,4.61l2.35.19a9.31,9.31,0,0,0,5.29-1.18l3.51-2a1.14,1.14,0,0,1,1.68.79h0a1.14,1.14,0,0,1-.17.82l-.5.75a3.38,3.38,0,0,0-.53,1.54h0a8.42,8.42,0,0,1-2.42,5.26l-.42.42a8.48,8.48,0,0,1-4.48,2.35l-1.54.27a21.13,21.13,0,0,0-8.77,3.77l-13.21,9.69a7.46,7.46,0,0,1-10.87-2.26l-9.69-16.61Z"></path>
        <path
            style="fill:#455a64"
            d="M189.81,209h1.38A11.48,11.48,0,0,1,202,216.62l5,14.4c-7.81,4.17-16.89,1.34-16.89,1.34Z"></path>
        <path
            style="fill:#37474f"
            d="M189.81,209h1.38A11.48,11.48,0,0,1,202,216.62l5,14.4c-7.81,4.17-16.89,1.34-16.89,1.34Z"></path>
        <path
            style="fill:#455a64"
            d="M159.17,259.26c.78-7.7,1.32-12.93,1.32-12.93s-.77-25.12,4.35-36.61l25-.77c12.7,10,10.87,26.37,10.67,38,.18,3.51.25,7.31.25,11.26A52.92,52.92,0,0,1,159.17,259.26Z"></path>
        <path
            style="fill:#a66e6e"
            d="M159.72,233.19a41,41,0,0,0-16.3,27.07c-.35,2.51,1,5.13,2.29,7.31a4,4,0,0,1,.55,1.21,1.13,1.13,0,0,1-.41,1.19,1.54,1.54,0,0,1-1.44-.1,7.9,7.9,0,0,1-3-2.47,6.14,6.14,0,0,0,.08,3.67,17,17,0,0,1,.74,3.49,3.39,3.39,0,0,1-1.45,3.07,3.58,3.58,0,0,1-2.92.06,8.6,8.6,0,0,1-5.15-6.11c-.89-5.22,3.94-38.13,17.66-48.76Z"></path>
        <path
            style="fill:#ffa8a7"
            d="M178.43,204a18.42,18.42,0,0,0,9.11,1.77v1.7a12,12,0,0,0,.64,3.39,2.47,2.47,0,0,1-.08,1.61A3.39,3.39,0,0,1,186,214.3a6.71,6.71,0,0,1-2.82.21,13.29,13.29,0,0,1-9.19-5.23v-9.64A10.41,10.41,0,0,0,178.43,204Z"></path>
        <path
            style="fill:#a66e6e"
            d="M178.43,204a18.42,18.42,0,0,0,9.11,1.77v1.7a12,12,0,0,0,.64,3.39,2.47,2.47,0,0,1-.08,1.61A3.39,3.39,0,0,1,186,214.3a6.71,6.71,0,0,1-2.82.21,13.29,13.29,0,0,1-9.19-5.23v-9.64A10.41,10.41,0,0,0,178.43,204Z"></path>
        <path
            style="fill:#874c4c"
            d="M176.56,204.53a10.15,10.15,0,0,1-2.55-4.1v-.79a10.41,10.41,0,0,0,4.42,4.37,18.42,18.42,0,0,0,9.11,1.77v1.7a7.88,7.88,0,0,0,.09,1.09,23.24,23.24,0,0,1-4.62-.7A14.42,14.42,0,0,1,176.56,204.53Z"></path>
        <path
            style="fill:#ffa8a7"
            d="M167.2,189.13a3.35,3.35,0,0,1,3.36-.18,10,10,0,0,1,2.76,2.18c3.11.65,4.64-2.83,5.74-5.23a29.1,29.1,0,0,0,2-7.77,13.09,13.09,0,0,0,8.72,2.56,10.93,10.93,0,0,0,7.63-3.22,40.18,40.18,0,0,1,2.37,8.63c.07,2.79.14,5.57.2,8.36a13.78,13.78,0,0,1-.6,5.47,8.74,8.74,0,0,1-4.76,4.59,18.16,18.16,0,0,1-6.62,1.26h-.44a18.42,18.42,0,0,1-9.11-1.77,10.41,10.41,0,0,1-4.42-4.37,7.76,7.76,0,0,1-.92-3.34,4.54,4.54,0,0,1-5.13,0,5.27,5.27,0,0,1-2-4.67A3.51,3.51,0,0,1,167.2,189.13Z"></path>
        <path
            style="fill:#a66e6e"
            d="M167.2,189.13a3.35,3.35,0,0,1,3.36-.18,10,10,0,0,1,2.76,2.18c3.11.65,4.64-2.83,5.74-5.23a29.1,29.1,0,0,0,2-7.77,13.09,13.09,0,0,0,8.72,2.56,10.93,10.93,0,0,0,7.63-3.22,40.18,40.18,0,0,1,2.37,8.63c.07,2.79.14,5.57.2,8.36a13.78,13.78,0,0,1-.6,5.47,8.74,8.74,0,0,1-4.76,4.59,18.16,18.16,0,0,1-6.62,1.26h-.44a18.42,18.42,0,0,1-9.11-1.77,10.41,10.41,0,0,1-4.42-4.37,7.76,7.76,0,0,1-.92-3.34,4.54,4.54,0,0,1-5.13,0,5.27,5.27,0,0,1-2-4.67A3.51,3.51,0,0,1,167.2,189.13Z"></path>
        <path style="fill:#37474f"
            d="M194.78,189.61a1.56,1.56,0,1,0,1.56-1.55A1.56,1.56,0,0,0,194.78,189.61Z"></path>
        <path style="fill:#37474f"
            d="M182.06,189.61a1.56,1.56,0,1,0,1.56-1.55A1.56,1.56,0,0,0,182.06,189.61Z"></path>
        <polygon style="fill:#f28f8f"
            points="190.18 190.11 190.18 195.81 194.11 194.39 190.18 190.11"></polygon>
        <polygon style="fill:#874c4c"
            points="190.18 190.11 190.18 195.81 194.11 194.39 190.18 190.11"></polygon>
        <path style="fill:#874c4c;opacity:0.4"
            d="M177.88,193.41a2.81,2.81,0,1,0,2.75-2.24A2.53,2.53,0,0,0,177.88,193.41Z"></path>
        <path style="fill:#874c4c;opacity:0.4"
            d="M195.15,193.41a2.81,2.81,0,1,0,2.75-2.24A2.53,2.53,0,0,0,195.15,193.41Z"></path>
        <path
            style="fill:#f28f8f"
            d="M189.81,198.71l-5.75-2.1a3.21,3.21,0,0,0,.53,3,3.11,3.11,0,0,0,2.83,1.1A3.36,3.36,0,0,0,189.81,198.71Z"></path>
        <path
            style="fill:#874c4c"
            d="M189.81,198.71l-5.75-2.1a3.21,3.21,0,0,0,.53,3,3.11,3.11,0,0,0,2.83,1.1A3.36,3.36,0,0,0,189.81,198.71Z"></path>
        <path
            style="fill:#37474f"
            d="M147.49,340.3a7.8,7.8,0,0,0,2.36,4.58,10,10,0,0,0,5.92,2.57,7.28,7.28,0,0,0,4.78-1,7.18,7.18,0,0,0,2.8-5.1,10.17,10.17,0,0,0,.08-1.1,14.77,14.77,0,0,1-.08,2.74,7.18,7.18,0,0,1-2.8,5.1,7.28,7.28,0,0,1-4.78,1,10,10,0,0,1-5.92-2.57,7.6,7.6,0,0,1-2.41-5.88C147.45,340.52,147.48,340.41,147.49,340.3Z"></path>
        <path
            style="fill:#455a64"
            d="M160.13,338a12.24,12.24,0,0,0-6.49-1.53,8.62,8.62,0,0,0-3.7.66,5.31,5.31,0,0,0-2.5,2.6q0-.35,0-.69c.21-2.92,2.28-5.36,3.07-8.17a32.41,32.41,0,0,0,.67-5.4,10,10,0,0,1,2-5.39l11.56,2.77a4.54,4.54,0,0,1,.07,3.4c-.37,1.1-.94,2.12-1.3,3.22a15.05,15.05,0,0,0-.34,5.95,26.63,26.63,0,0,1,.18,6,6,6,0,0,1-.13.61A6.87,6.87,0,0,0,160.13,338Z"></path>
        <path
            style="fill:#fff"
            d="M149.94,337.09a8.62,8.62,0,0,1,3.7-.66,12.24,12.24,0,0,1,6.49,1.53,4.58,4.58,0,0,1,.42,8.5,7.28,7.28,0,0,1-4.78,1,10,10,0,0,1-5.92-2.57,7.67,7.67,0,0,1-2.41-5.19A5.31,5.31,0,0,1,149.94,337.09Z"></path>
        <path
            style="fill:#37474f"
            d="M184.22,333.27c.93,1.06,2.48,1.25,3.79,1.78,2.68,1.07,4.44,3.61,6.73,5.38a13.59,13.59,0,0,0,14.78,1,4.81,4.81,0,0,0,2.38-2.63,2.82,2.82,0,0,1,.09,1.38,4.65,4.65,0,0,1-2.47,2.86,13.59,13.59,0,0,1-14.78-1c-2.29-1.77-4.05-4.31-6.73-5.38-1.31-.53-2.86-.72-3.79-1.78a3.75,3.75,0,0,1-.81-2.51,6,6,0,0,1,.08-.73A3.36,3.36,0,0,0,184.22,333.27Z"></path>
        <path
            style="fill:#fff"
            d="M196,338.38a7.44,7.44,0,0,1,3.42-3.63,13.86,13.86,0,0,1,4.85-1.42,25.51,25.51,0,0,1,2.9-.18l.25.11a10.9,10.9,0,0,1,3.28,1.88,3.79,3.79,0,0,1,1.31,3.39,4.65,4.65,0,0,1-2.47,2.86,13.6,13.6,0,0,1-13.89-.38A5.5,5.5,0,0,1,196,338.38Z"></path>
        <path
            style="fill:#455a64"
            d="M183.87,328.12a18.53,18.53,0,0,0,.78-4.24,2.93,2.93,0,0,1,.11-.93c.11-.29.49-.72.8-.74l11.31.37c.39-.18.83.23,1,.61a3.45,3.45,0,0,1,.2,1.25,8.21,8.21,0,0,0,3.36,5.65,24.13,24.13,0,0,0,5.71,3.06,25.51,25.51,0,0,0-2.9.18,13.86,13.86,0,0,0-4.85,1.42,7.44,7.44,0,0,0-3.42,3.63,5.5,5.5,0,0,0-.35,2.63,10.44,10.44,0,0,1-.89-.58c-2.29-1.77-4.05-4.31-6.73-5.38-1.31-.53-2.86-.72-3.79-1.78a3.75,3.75,0,0,1-.81-2.51A10.45,10.45,0,0,1,183.87,328.12Z"></path>
        <path
            style="fill:#ffa8a7"
            d="M159.17,259.26a52.92,52.92,0,0,0,41.56-1.09c0,26.29-3.58,59.71-3.92,65.25-4.76,4.75-11.08,2.09-11.2,0-.52-16.88-5.8-50.62-5.8-50.62-5.67,25.24-14.23,48.62-16,52.23-1,2.12-11.15,3.41-10.7-3.74C153.41,316.13,157.13,279.3,159.17,259.26Z"></path>
        <path
            style="fill:#a66e6e"
            d="M159.17,259.26a52.92,52.92,0,0,0,41.56-1.09c0,26.29-3.58,59.71-3.92,65.25-4.76,4.75-11.08,2.09-11.2,0-.52-16.88-5.8-50.62-5.8-50.62-5.67,25.24-14.23,48.62-16,52.23-1,2.12-11.15,3.41-10.7-3.74C153.41,316.13,157.13,279.3,159.17,259.26Z"></path>
        <path
            style="fill:#FF8700"
            d="M200.46,291.57c.41-9.89.64-21.72.27-33.4a52.92,52.92,0,0,1-41.56,1.09L155.63,290a23.26,23.26,0,0,0,20.79,3.67A151.62,151.62,0,0,0,180,276.33s1.17,7.64,2.15,17.42A24.72,24.72,0,0,0,200.46,291.57Z"></path>
        <path
            style="fill:#fff;opacity:0.30000000000000004"
            d="M200.46,291.57c.41-9.89.64-21.72.27-33.4a52.92,52.92,0,0,1-41.56,1.09L155.63,290a23.26,23.26,0,0,0,20.79,3.67A151.62,151.62,0,0,0,180,276.33s1.17,7.64,2.15,17.42A24.72,24.72,0,0,0,200.46,291.57Z"></path>
        <path
            style="opacity:0.2"
            d="M182.19,278.41a51.3,51.3,0,0,1-.24,13.85c-.95-9.05-2-15.93-2-15.93,4.43-.12,10.87-3,12.1-4.3A13.31,13.31,0,0,1,182.19,278.41Z"></path>
        <path
            style="fill:#455a64"
            d="M169.25,209.58l-4.41.14h0a8,8,0,0,0-5.47,2.4l-10.08,10.32c1.09,9.92,10.43,11.85,10.43,11.85C171.12,224.76,172.92,215.27,169.25,209.58Z"></path>
        <path
            style="fill:#37474f"
            d="M169.25,209.58l-4.41.14h0a8,8,0,0,0-5.47,2.4l-10.08,10.32c1.09,9.92,10.43,11.85,10.43,11.85C171.12,224.76,172.92,215.27,169.25,209.58Z"></path>
        <polygon style="fill:#FF8700"
            points="233.35 234.48 231.15 234.07 232.26 232.77 233.35 234.48"></polygon>
        <polygon style="fill:#FF8700"
            points="242.12 224.17 239.92 223.76 241.03 222.45 242.12 224.17"></polygon>
        <polygon style="fill:#37474f"
            points="233.35 234.48 231.15 234.07 232.26 232.77 233.35 234.48"></polygon>
        <polygon style="fill:#37474f"
            points="242.12 224.17 239.92 223.76 241.03 222.45 242.12 224.17"></polygon>
        <path
            style="fill:#f5f5f5"
            d="M232.45,237.12h0a1.69,1.69,0,0,1-.23.36c-.32.38-.71.39-1,.08a1.06,1.06,0,0,1-.15-.28s0,0,0-.05h0v-.1h0v0h0v0h0V237h0v-.06h0v-.11h0v-.08h0v-.07h0v-.11h0v-.07s0,0,0-.08h0s0-.06,0-.08v-.05h0l0-.09h0l0-.06v0h0l0-.08h0l0,0v-.08l0,0h0v0h0v0h0l0,0v0h0l0,0v0l0,0v0l0,0v0h0v0l0,0h0l0,0h0l0,0h0l0,0h0l0,0h0l0,0h0l0,0h0l0,0h.42l.05,0h0l0,0h0l.05,0h0a.26.26,0,0,1,.09.09h0l0,0h0l0,0h0l0,0h0v0h0v0h0v0h0l0,0h0a.14.14,0,0,1,0,.06v.07h0v.09a.59.59,0,0,1,0,.14v0h0v.07h0v.24h0v.13h0s0,.07,0,.11a.13.13,0,0,1,0,.06h0v0l-.06.22V237s0,.07,0,.11h0Z"></path>
        <path
            style="fill:#263238"
            d="M227.93,237.53h0v-.24h0a.29.29,0,0,0,0-.09h0v0s0,0,0-.07v-.39h0a.31.31,0,0,0,0-.1h0v-.37h0v-.1h0v0a.22.22,0,0,1,0-.08h0v-.11h0l0-.16h0v0l0-.07v-.17a.84.84,0,0,0,.05-.17h0a.56.56,0,0,0,0-.12h0l0-.09v0h0l0-.1h0l0,0,0-.06h0l0,0,0-.05v0l0,0v0l0,0,0,0,0,0v0l0,0,0,0,0,0,0,0v0l0,0,0,0v0l0,0,0,0h0l.05-.07h0l.05-.06v0l0-.05v0l0,0,0,0,0,0,0,0h0l.06-.06h0l.06,0h0l0,0,0,0v0l0,0h0l0,0h0l0,0h.07l0,0h.11l.06,0h.42l2.49.46h-.42l-.06,0h0l-.05,0h0l-.06,0h0l-.05,0h0l0,0h0l-.05,0h0l-.06,0,0,0h0l-.05,0,0,0h0l-.06.06h0l-.08.09,0,0,0,0h0a.44.44,0,0,0-.08.11h0v0l-.06.08,0,.05h0l0,0h0l0,0h0v0h0l0,0h0v0l0,0h0s0,0,0,.08v0h0a.54.54,0,0,1,0,.11h0c0,.09-.07.18-.11.28h0v0h0c0,.05,0,.11-.05.16h0l-.08.29h0v0h0a3.74,3.74,0,0,0-.09.66h0v.05c0,.1,0,.2,0,.3h0v.1h0a.28.28,0,0,1,0,.09v0h0v0h0v.06h0v0h0v0h0a.15.15,0,0,1,0,.07h0v0a.2.2,0,0,0,0,.07h0l0,.12h0v0a.74.74,0,0,1,0,.14h0a.49.49,0,0,1,0,.11h0l0,.09h0l0,0,0,0h0l0,0,0,0h0l0,0,0,0h0l0,.06v0h0l0,.05,0,0h0l0,0,0,0h0l.09.1,0,0h0l0,0,0,0h0l0,0,0,0h0l0,0h0l0,0h0l0,0h.17l-2.49-.47h-.15l-.05,0h0l-.06,0h0l0,0h0l-.05,0h0l-.06-.05h0l-.05-.05h0l-.07-.08h0v0l0,0h0v0l0-.05h0l0,0,0,0v-.05l0,0v0l0,0,0,0h0l0-.05v0h0l0-.08h0Z"></path>
        <path
            style="fill:#37474f"
            d="M231.29,239h0a1.29,1.29,0,0,0,1.23-.55,4.09,4.09,0,0,0,.66-3.62,1.3,1.3,0,0,0-.91-.94h-.42l-.06,0h0l-.05,0h0l-.06,0h0l-.05,0h0l0,0h0l-.05,0,0,0-.06,0,0,0-.05,0,0,0-.06.06h0l-.08.09,0,0,0,0a.44.44,0,0,0-.08.11v0l-.06.08,0,.05,0,0,0,0h0v0h0l0,0v0l0,0h0s0,0,0,.08v0h0a.54.54,0,0,1,0,.11h0c0,.09-.07.18-.11.28v0h0c0,.05,0,.11-.05.16h0l-.08.29v0a3.74,3.74,0,0,0-.09.66v.05c0,.1,0,.2,0,.3v.1h0a.28.28,0,0,1,0,.09v0h0v.11h0v.07h0a.15.15,0,0,1,0,.07v0a.2.2,0,0,0,0,.07h0l0,.12v0a.74.74,0,0,1,0,.14h0a.49.49,0,0,1,0,.11h0l0,.09,0,0,0,0,0,0,0,0,0,0,0,0,0,.06v0l0,.05,0,0,0,0,0,0,.09.1,0,0,0,0,0,0,0,0,0,0,0,0,0,0,0,0h0l0,0h.1Zm1.15-1.85a1.69,1.69,0,0,1-.23.36c-.32.38-.71.39-1,.08a1.06,1.06,0,0,1-.15-.28s0,0,0-.05h0v-.1h0v0h0v0h0V237h0v-.06h0v-.11h0v-.08h0v-.07h0v-.11h0v-.07s0,0,0-.08h0s0-.06,0-.08v-.05h0l0-.09h0s0,0,0-.06v0h0l0-.08h0l0,0v-.08l0,0h0v0h0v0h0v0l0,0h0l0,0v0l0,0v0l0,0v0h0v0l0,0h0l0,0h0l0,0h0l0,0h0l0,0h0l0,0h0l0,0h0l0,0h.42l.05,0h0l0,0h0l.05,0h0a.26.26,0,0,1,.09.09h0l0,0h0l0,0h0l0,0h0v0h0v0h0v0h0l0,0h0a.14.14,0,0,1,0,.06v.07h0v.09a.59.59,0,0,1,0,.14v0h0v.07h0v.24h0v.13h0s0,.07,0,.11a.13.13,0,0,1,0,.06h0v0l-.06.22V237s0,.07,0,.11h0l0,0h0Z"></path>
        <path
            style="fill:#f5f5f5"
            d="M241.22,227h0a1.31,1.31,0,0,1-.23.36c-.32.38-.71.4-.95.08a1.17,1.17,0,0,1-.15-.27.14.14,0,0,0,0-.06h0v0h0v0h0v0h0v0h0v0h0v-.07h0v0h0v-.06h0v-.08h0v-.08h0v-.05h0v0h0v-.06a.28.28,0,0,1,0-.09h0l0-.08v0h0l0-.09h0l0,0v0h0l0-.08h0v-.06l0,0v-.05h0v-.05h0l0,0h0v0l0,0h0l0,0v0l0,0v0l0,0v0h0l0,0,0,0h0l0,0h0l0,0h0l0,0h0l0,0h0l0,0h0l0,0h0l0,0h0l0,0h.38l.05,0h0l0,0h0l0,0h0l.09.09h0l0,0h0l0,0h0l0,0h0v0h0v0h0v0h0l0,.05h0a.14.14,0,0,1,0,.07h0v0h0v.09a.68.68,0,0,1,0,.14v0h0v.08h0v.22h0v.13h0s0,.07,0,.11v.06h0v0l-.06.22v.09l0,.1h0Z"></path>
        <path
            style="fill:#263238"
            d="M236.7,227.37h0v-.24h0a.29.29,0,0,0,0-.09h0s0-.06,0-.08v-.39h0s0-.07,0-.1h0v-.09h0v-.27h0a.31.31,0,0,0,0-.1h0v-.23h0l0-.16h0v-.11l0-.06v-.1a1.21,1.21,0,0,0,.05-.18h0a.56.56,0,0,0,0-.12h0l0-.09h0s0-.07,0-.11h0l0,0,0-.07h0l0,0,0-.05h0l0-.05v-.06l0,0v0l0,0,0,0,0,0v0l0,0v0l0,0,0,0h0l0-.05,0,0h0l.06-.08h0l0-.06v0l.05-.05v0l0,0v0l0,0,0,0h0l.06,0h0l.06-.05h0l0,0,0,0h0l0,0,0,0h0l0,0h0l0,0h0l0,0h0l0,0h0l.06,0h.42l2.49.46h-.42l-.06,0h0l0,0h0l-.05,0h0l0,0,0,0h0l-.05,0h0l-.05,0,0,0h0l-.06.05,0,0h0l-.05,0,0,0h0l-.06.07h0l-.08.1,0,0,0,0h0l-.09.12h0l-.06.08,0,.06h0l0,0h0l0,0h0v0h0l0,0h0v0h0a.59.59,0,0,1,0,.08v0h0s0,.07-.05.1h0c0,.09-.08.19-.11.28h0l0,0h0c0,.05,0,.11,0,.17h0c0,.09-.05.18-.08.28h0v.06h0a3.62,3.62,0,0,0-.09.66h0v0h0c0,.1,0,.2,0,.3h0v.1h0a.28.28,0,0,1,0,.09v0h0v0h0v.06h0v0h0v0s0,0,0,.06h0v0s0,0,0,.07h0v0l0,.12h0v0c0,.05,0,.1,0,.14h0s0,.07,0,.11v0h0l0,.09h0l0,0,0,0h0l0,.05,0,0h0l0,.05,0,0h0l0,0v0h0l0,.06,0,0h0l0,.05,0,0h0l.09.1,0,0h0l0,0,0,0h0l0,0,0,0h0l0,0,0,0h0l0,0,0,0H240l0,0h.1l-2.5-.46-.06,0h0l0,0h0l-.06,0h0l-.06,0h0l0,0,0,0,0,0h0l-.06,0h0l0-.05h0a.46.46,0,0,1-.07-.07h0v0l0-.05h0v0l0,0v0l0,0,0,0v0l0,0v-.06l0,0,0,0v0l0-.05v0h0l0-.08h0Z"></path>
        <path
            style="fill:#37474f"
            d="M240.06,228.83h0a1.27,1.27,0,0,0,1.22-.55,4.06,4.06,0,0,0,.67-3.62,1.3,1.3,0,0,0-.91-.94h-.42l-.06,0h0l0,0h0l-.05,0h0l0,0,0,0-.05,0h0l-.05,0,0,0-.06.05,0,0-.05,0,0,0-.06.07h0l-.08.1,0,0,0,0-.09.12h0l-.06.08,0,.06,0,0,0,0h0v0h0l0,0h0v0h0a.59.59,0,0,1,0,.08v0s0,.07-.05.1h0c0,.09-.08.19-.11.28l0,0h0c0,.05,0,.11,0,.17h0c0,.09-.05.18-.08.28v.06a3.62,3.62,0,0,0-.09.66v0h0c0,.1,0,.2,0,.3v.1h0a.28.28,0,0,1,0,.09v0h0v.1h0v.09s0,0,0,.06v0s0,0,0,.07h0v0l0,.12v0c0,.05,0,.1,0,.14h0s0,.07,0,.11v0h0l0,.09,0,0,0,0,0,.05,0,0,0,.05,0,0,0,0v0l0,.06,0,0,0,.05,0,0,.09.1,0,0,0,0,0,0,0,0,0,0,0,0,0,0,0,0,0,0H240l0,0Zm1.15-1.85a1.31,1.31,0,0,1-.23.36c-.32.38-.71.4-.95.08a1.17,1.17,0,0,1-.15-.27.14.14,0,0,0,0-.06h0v0h0v0h0v0h0v0h0v0h0v-.07h0v0h0v-.06h0v-.08h0v-.08h0v-.05h0v0h0v-.06a.28.28,0,0,1,0-.09h0l0-.08v0h0l0-.09h0l0,0v0h0l0-.08h0v-.06l0,0v-.05h0v-.05h0l0,0h0v0l0,0h0l0,0v0l0,0v0l0,0v0h0l0,0,0,0h0l0,0h0l0,0h0l0,0h0l0,0h0l0,0h0l0,0h0l0,0h0l0,0h.38l.05,0h0l0,0h0l0,0h0l.09.09h0l0,0h0l0,0h0l0,0h0l0,0h0v0h0v0h0l0,.05h0a.14.14,0,0,1,0,.07h0v0h0v.09a.68.68,0,0,1,0,.14v0h0v.08h0v.22h0v.13h0s0,.07,0,.11v.06h0v0l-.06.22v.09l0,.1h0l0,0h0Z"></path>
        <polygon style="fill:#37474f"
            points="230.02 224.15 218.06 221.92 227.4 210.94 239.36 213.16 230.02 224.15"></polygon>
        <polygon style="fill:#FF8700"
            points="226.18 236.33 214.21 234.1 218.8 227.82 230.76 230.05 226.18 236.33"></polygon>
        <polygon style="fill:#FF8700"
            points="226.18 236.33 227.84 240.96 215.88 238.73 214.21 234.1 226.18 236.33"></polygon>
        <polygon style="opacity:0.2"
            points="226.18 236.33 227.84 240.96 215.88 238.73 214.21 234.1 226.18 236.33"></polygon>
        <polygon
            style="fill:#FF8700"
            points="241.54 217.37 243.43 222.62 242.12 224.17 241.03 222.45 239.92 223.76 238.62 225.28 239.05 227.78 233.35 234.48 232.26 232.77 231.15 234.07 229.85 235.59 230.28 238.09 227.84 240.96 226.18 236.33 230.76 230.05 241.54 217.37"></polygon>
        <polygon
            style="opacity:0.4"
            points="241.54 217.37 243.43 222.62 242.12 224.17 241.03 222.45 239.92 223.76 238.62 225.28 239.05 227.78 233.35 234.48 232.26 232.77 231.15 234.07 229.85 235.59 230.28 238.09 227.84 240.96 226.18 236.33 230.76 230.05 241.54 217.37"></polygon>
        <polygon
            style="fill:#455a64"
            points="222.37 222.73 220.63 222.4 218.35 221.98 218.06 221.92 218.09 222.21 218.8 227.82 225.15 229 225.77 229.12 228.06 229.54 229.79 229.87 230.76 230.05 230.02 224.15 222.37 222.73"></polygon>
        <polygon
            style="fill:#fff;opacity:0.1"
            points="222.37 222.73 220.63 222.4 218.35 221.98 218.06 221.92 218.09 222.21 218.8 227.82 225.15 229 225.77 229.12 228.06 229.54 229.79 229.87 230.76 230.05 230.02 224.15 222.37 222.73"></polygon>
        <polygon
            style="fill:#455a64"
            points="239.36 213.16 236.4 216.64 235.78 217.38 234.95 218.35 234.72 218.62 232.52 221.21 231.89 221.95 231.06 222.93 230.84 223.19 230.02 224.15 230.76 230.05 234 226.24 234.23 225.97 235.06 225 235.69 224.26 237.89 221.66 238.12 221.4 238.94 220.43 239.57 219.69 241.54 217.37 239.36 213.16"></polygon>
        <polygon style="fill:#263238"
            points="224.04 238.62 224.25 239.21 218.44 238.13 218.23 237.54 224.04 238.62"></polygon>
        <polygon style="fill:#f5f5f5"
            points="215.92 236.58 215.38 235.1 217.09 235.42 217.62 236.9 215.92 236.58"></polygon>
        <polygon style="fill:#455a64"
            points="217.5 235.49 223.31 236.57 223.84 238.06 218.03 236.98 217.5 235.49"></polygon>
        <polygon style="fill:#f5f5f5"
            points="224.45 238.69 226.34 239.05 226.55 239.64 224.66 239.29 224.45 238.69"></polygon>
        <polygon style="fill:#f5f5f5"
            points="218.03 238.06 216.34 237.74 216.12 237.15 217.82 237.46 218.03 238.06"></polygon>
        <polygon style="fill:#f5f5f5"
            points="223.72 236.65 225.6 237 226.14 238.48 224.25 238.13 223.72 236.65"></polygon>
        <polygon style="fill:#263238"
            points="234.24 226.78 235.69 230.86 235.47 231.12 234.02 227.06 234.24 226.78"></polygon>
        <path style="fill:#263238"
            d="M233.55,227.72l-.22.26a.64.64,0,0,0-.12.65h0l.72-.84h0A.22.22,0,0,0,233.55,227.72Z"></path>
        <path style="fill:#263238"
            d="M237.21,223.55l-.22.26a.67.67,0,0,0-.13.66h0l.73-.85h0A.22.22,0,0,0,237.21,223.55Z"></path>
    </g>
    <g id="freepik--Cars--inject-39">
        <polygon style="fill:#FF8700"
            points="223.66 299.06 225.39 298.07 224.23 297.39 223.66 299.06"></polygon>
        <polygon style="fill:#FF8700"
            points="242.47 310.01 244.2 309.01 243.04 308.34 242.47 310.01"></polygon>
        <polygon style="opacity:0.4"
            points="223.66 299.06 225.39 298.07 224.23 297.39 223.66 299.06"></polygon>
        <polygon style="opacity:0.4"
            points="242.47 310.01 244.2 309.01 243.04 308.34 242.47 310.01"></polygon>
        <path
            style="fill:#fafafa"
            d="M244.09,312.35h0a2,2,0,0,0,.34.26c.44.26.82.14,1-.25a1,1,0,0,0,0-.31V312h0v-.1h0v-.05h0v-.09h0s0,0,0-.07h0v0h0v-.08h0v0h0l0-.08h0v0l0,0v0h0l0-.05v0l0,0h0l0,0v0l0-.07v0l-.05-.07,0,0h0l-.06-.08h0l0-.05,0,0h0l-.05-.06h0l0,0,0,0,0,0,0,0,0,0h0l0,0h0l0,0h0l0,0h0l0,0h0l0,0h0l0,0h0l0,0h-.05l0,0h0l0,0h0l0,0h-.52l0,0h0l0,0h0l0,0h0l0,.05h0l-.06.11h0v0h0v0h0v0h0v0h0v0h0v.05h0v.05h0v.14h0v.09a.8.8,0,0,0,0,.15h0v.07h0l0,.1a.76.76,0,0,1,0,.11v0h0l0,.05v0l0,0h0l0,.1,0,0h0l0,0,.13.2,0,0h0l0,0,.07.08h0Z"></path>
        <path
            style="fill:#37474f"
            d="M248.58,311.21v-.27h0s0-.06,0-.09h0v0s0-.05,0-.08h0v-.37h0l0-.1h0l0-.09h0l0,0v-.05l0,0V310l0-.05v0h0l0-.09h0v0l0-.07h0l0-.06,0,0h0l-.08-.15h0l0,0,0-.05,0-.06,0-.05,0,0v0l-.11-.15h0a.76.76,0,0,0-.08-.11h0l-.06-.08h0l-.07-.09h0l0,0,0-.05h0l0,0,0,0h0l0,0,0,0,0,0,0,0,0,0,0,0,0,0,0,0,0,0,0,0,0,0,0,0,0,0h0l0,0,0,0h0l-.08,0h0l-.08,0h0l-.06,0h0l0,0h0l0,0h0l-.07,0h0l-.08,0h-.83l-.05,0h0l-.07,0-2.25,1.29h0l.18-.07H244l.07,0h0l.07,0,0,0h0l.06,0,0,0h0l.08,0h0l.11.06,0,0,.05,0h0l.13.08h0l.08.06.05,0h0l0,0h0l0,0h0l0,0h0l0,0h0l.06.07h0l.08.09h0c.07.07.13.15.2.23h0l0,0h0l.11.14h0l.17.25h0l0,.05h0a4.87,4.87,0,0,1,.31.6h0l0,0h0c0,.1.08.2.11.29h0v0l0,0v0h0l0,.09v0h0v0h0v.07h0v.05h0v0h0V312h0v0s0,.05,0,.07h0v0a.5.5,0,0,1,0,.12h0v0a.92.92,0,0,1,0,.16h0v.14h0v.1h0v.1h0a.43.43,0,0,1,0,0v.05h0a.13.13,0,0,0,0,.06v0h0s0,0,0,.06v0h0a.14.14,0,0,1,0,.06v0h0a.14.14,0,0,0,0,.06v0h0a.5.5,0,0,1-.05.13l0,0h0l0,0,0,0h0l0,0v0h0l0,0,0,0h0l0,0,0,0h0l0,0,0,0h0l0,0h0l0,0,0,0,2.25-1.3.06,0v0l0,0,0,0,0,0h0l0-.05,0,0,0,0h0l0-.05h0l0-.06h0l0-.06h0l0-.09h0v0a.14.14,0,0,0,0-.06v0l0-.06v-.37h0v-.09h0Z"></path>
        <path
            style="fill:#455a64"
            d="M245.87,313.74l0,0,0,0,0,0,0,0,0,0,0,0,0,0v0l0,0,0,0,0,0s0,0,0,0a.5.5,0,0,0,.05-.13l0,0a.14.14,0,0,1,0-.06v0a.14.14,0,0,0,0-.06v0s0,0,0-.06v0a.13.13,0,0,1,0-.06v-.05a.43.43,0,0,0,0,0v-.2h0v-.14h0a.92.92,0,0,0,0-.16v0a.5.5,0,0,0,0-.12v0h0s0-.05,0-.07V312h0v-.08h0v-.11h0v0l0-.09h0v0l0,0v0c0-.09-.07-.19-.11-.29h0l0,0a4.87,4.87,0,0,0-.31-.6l0-.05-.17-.25h0l-.11-.14h0l0,0c-.07-.08-.13-.16-.2-.23h0l-.08-.09h0l-.06-.07h0l0,0h0l0,0h0l0,0,0,0-.05,0-.08-.06h0l-.13-.08-.05,0,0,0-.11-.06h0l-.08,0,0,0-.06,0,0,0-.07,0h0l-.07,0h-.67l-.18.07a1.32,1.32,0,0,0-.55,1.21,4.14,4.14,0,0,0,1.86,3.26,1.31,1.31,0,0,0,1.37.12l0,0Zm-1.76-1.38h0l0,0h0l-.07-.08,0,0h0l0,0-.13-.2,0,0h0l0,0,0-.1h0l0,0v0l0-.05h0v0a.76.76,0,0,0,0-.11l0-.1h0v-.07h0a.8.8,0,0,1,0-.15v-.09h0v-.14h0v-.05h0v-.05h0v0h0v0h0v0h0v0h0v0h0l.06-.11h0l0-.05h0l0,0h0s0,0,0,0h0l0,0h.52l0,0h0l0,0h0l0,0h.05l0,0h0l0,0h0l0,0h0l0,0h0l0,0h0l0,0h0l0,0h0l0,0,0,0,0,0,0,0,0,0h0l.05.06h0l0,0,0,.05h0l.06.08h0l0,0,.05.07v0l0,.07v0l0,0h0l0,0v0l0,.05h0v0l0,0v0h0l0,.08h0v0h0v.08h0v0h0s0,.05,0,.07h0v.09h0v.05h0v.1h0v.06a1,1,0,0,1,0,.31c-.13.39-.51.51-1,.25a2,2,0,0,1-.34-.26Z"></path>
        <path
            style="fill:#fafafa"
            d="M225.18,301.55h0a1.44,1.44,0,0,0,.34.27c.44.25.81.14.94-.25a1,1,0,0,0,.05-.32v-.07h0v-.09h0v0h0v0h0v-.05h0l0-.06h0v-.11h0l0-.07v0l0,0h0l0,0h0l0,0h0v0l0,0s0-.05,0-.08h0l0-.07,0,0h0l-.06-.08h0l0-.05,0,0h0l-.06-.07h0l0,0,0,0,0,0v0l0,0h0l0,0h0l0,0h0l0,0h0l0,0h0l0,0h0l0,0h0l0,0h0l0,0h0l0,0h-.62l0,0h0l-.05,0h0l0,0h0l0,.05h0a.37.37,0,0,0,0,.11h0v.05h0v0h0v.05h0v0h0v0h0v0h0v0h0v.13h0v.09l0,.14v0h0v.08h0l0,.1a.76.76,0,0,0,0,.11h0l0,.05v0l0,.05h0a.47.47,0,0,1,.05.1.21.21,0,0,1,0,.06h0l0,.05a1.33,1.33,0,0,0,.14.19l0,0v0l0,0,.08.09h0Z"></path>
        <path
            style="fill:#37474f"
            d="M229.67,300.42v-.27h0s0-.06,0-.09h0s0,0,0-.08h0v-.29l0,0v0h0l0-.09h0l0-.09h0v0l0,0v-.09l0-.06v0h0l0-.1h0v0l0-.08h0l0-.05,0-.05h0l-.09-.14h0l0,0,0-.06,0,0,0-.06v0h0l-.11-.16h0l-.08-.1h0l-.06-.07,0,0h0a.27.27,0,0,0-.07-.08h0l0,0,0-.05h0l0,0,0,0h0l0,0,0,0v0l0,0,0,0,0,0,0,0,0,0,0,0,0,0h0l0,0,0,0h0l0,0,0,0h0l-.08-.05h0l-.07-.05h0l-.06,0h0l0,0h0l0,0h0l-.08,0h0l-.07,0h0l0,0h-.63l-.06,0h0l0,0h0l-.05,0h0l-.07,0-2.24,1.29h0l.17-.08h0l.05,0H225l.06,0h0l.06,0h0l.07,0h0l.06,0h0l.08,0h0l.12.07,0,0,.05,0h0l.12.09h0l.09.07,0,0h0l0,0h0l0,0h0l0,0h0l0,0,0,0h0l.07.06,0,0h0l.08.08h0a2.09,2.09,0,0,1,.2.22h0l0,0h0l.11.15h0l.16.24h0l0,.06h0a5.65,5.65,0,0,1,.31.6h0v0h0c0,.1.07.19.1.29h0v.1h0s0,.06,0,.08v0h0v0h0v.07h0v0h0v.11h0v0a.64.64,0,0,0,0,.07h0v0h0s0,.08,0,.13h0v0c0,.05,0,.1,0,.15h0v.14h0v.1h0v.1h0v.09h0a.13.13,0,0,1,0,.06v0h0s0,0,0,.06v0h0s0,0,0,.06v0h0a.14.14,0,0,1,0,.06v0h0l-.06.12,0,0h0l0,0,0,0h0l0,0,0,0h0l0,0h0l0,0,0,0h0l0,0,0,0h0l0,0h0l0,0,0,0,2.24-1.29.06,0h0l0,0h0l0,0h0s0,0,.05-.05h0l0,0,0,0,0,0v0h0l0-.06h0l0-.07h0a.93.93,0,0,0,.05-.1h0v0a.14.14,0,0,1,0-.06v-.37h0v-.09h0v-.09h0Z"></path>
        <path
            style="fill:#455a64"
            d="M227,302.94l0,0,0,0,0,0,0,0,0,0,0,0,0,0,0,0,0,0,0,0,0,0a.05.05,0,0,0,0,0l.06-.12v0a.14.14,0,0,0,0-.06v0s0,0,0-.06v0s0,0,0-.06v0a.13.13,0,0,0,0-.06v-.29h0v-.14h0s0-.1,0-.15v0c0-.05,0-.09,0-.13h0v0a.64.64,0,0,1,0-.07v-.17h0V301h0v0s0-.05,0-.08h0v-.1c0-.1-.06-.19-.1-.29h0v0a5.65,5.65,0,0,0-.31-.6l0-.06-.16-.24h0l-.11-.15h0l0,0a2.09,2.09,0,0,0-.2-.22h0l-.08-.08h0l0,0-.07-.06h0l0,0,0,0,0,0h0l0,0,0,0,0,0-.09-.07h0l-.12-.09-.05,0,0,0-.12-.07h0l-.08,0h0l-.06,0h0l-.07,0h0l-.06,0h0l-.06,0h-.52l-.05,0h0l-.17.08a1.33,1.33,0,0,0-.56,1.21,4.15,4.15,0,0,0,1.87,3.26,1.31,1.31,0,0,0,1.37.11l0,0Zm-1.77-1.38h0l0,0h0l-.08-.09,0,0v0l0,0a1.33,1.33,0,0,1-.14-.19l0-.05h0a.21.21,0,0,0,0-.06.47.47,0,0,0-.05-.1h0l0-.05v0l0-.05h0a.76.76,0,0,1,0-.11l0-.1h0v-.08h0v0l0-.14v-.09h0v-.13h0v0h0v0h0v0h0v0h0v-.05h0v0h0v-.05h0a.37.37,0,0,1,0-.11h0l0-.05h0l0,0h0l.05,0h0l0,0h.62l0,0h0l0,0h0l0,0h0l0,0h0l0,0h0l0,0h0l0,0h0l0,0h0l0,0h0l0,0v0l0,0,0,0,0,0h0l.06.07h0l0,0,0,.05h0l.06.08h0l0,0,0,.07h0s0,0,0,.08l0,0v0h0l0,0h0l0,0h0l0,0v0l0,.07h0v.11h0l0,.06h0V301h0v0h0v0h0v.09h0v.07a1,1,0,0,1-.05.32c-.13.39-.5.5-.94.25a1.44,1.44,0,0,1-.34-.27Z"></path>
        <polygon
            style="fill:#FF8700"
            points="227.25 291.06 234.65 286.79 231.76 285.11 220.01 291.89 226.14 295.45 227.25 291.06"></polygon>
        <polygon
            style="fill:#fff;opacity:0.30000000000000004"
            points="227.25 291.06 234.65 286.79 231.76 285.11 220.01 291.89 226.14 295.45 227.25 291.06"></polygon>
        <polygon
            style="fill:#FF8700"
            points="240.08 298.52 251.83 291.74 239 284.28 234.65 286.79 227.25 291.06 240.08 298.52"></polygon>
        <polygon style="fill:#FF8700"
            points="250.4 309.57 262.15 302.79 254.41 298.29 242.66 305.07 250.4 309.57"></polygon>
        <polygon
            style="fill:#fff;opacity:0.4"
            points="240.08 298.52 251.83 291.74 239 284.28 234.65 286.79 227.25 291.06 240.08 298.52"></polygon>
        <polygon style="fill:#FF8700"
            points="262.15 302.79 250.4 309.57 252.13 315.63 263.88 308.85 262.15 302.79"></polygon>
        <polygon style="fill:#fff;opacity:0.1"
            points="262.15 302.79 250.4 309.57 252.13 315.63 263.88 308.85 262.15 302.79"></polygon>
        <polygon style="fill:#fff;opacity:0.30000000000000004"
            points="250.4 309.57 262.15 302.79 254.41 298.29 242.66 305.07 250.4 309.57"></polygon>
        <polygon
            style="fill:#FF8700"
            points="250.4 309.57 242.66 305.07 226.14 295.45 220.01 291.89 218.89 296.28 223.66 299.06 224.23 297.39 225.39 298.07 227.81 299.48 228.36 301.8 242.47 310.01 243.04 308.34 244.2 309.01 246.62 310.42 247.17 312.74 252.13 315.63 250.4 309.57"></polygon>
        <path style="fill:#fff"
            d="M262.31,306.36l-.52-1.82-2.17,1.25h0a1.48,1.48,0,0,0,2.16.88Z"></path>
        <path
            style="fill:#fff"
            d="M262.11,307.49l-1.45.84a.4.4,0,0,0-.19.45h0a.41.41,0,0,0,.59.24l1.45-.84a.4.4,0,0,0,.19-.46h0A.4.4,0,0,0,262.11,307.49Z"></path>
        <path style="fill:#fff"
            d="M254.27,308.84l-2.34,1.35.52,1.82.7-.41a2.4,2.4,0,0,0,1.12-2.76Z"></path>
        <path
            style="fill:#fff"
            d="M252.78,313.18h0a.41.41,0,0,0,.59.24l1.63-.94a.4.4,0,0,0,.18-.46h0a.4.4,0,0,0-.58-.24l-1.63.94A.4.4,0,0,0,252.78,313.18Z"></path>
        <polygon style="fill:#fff"
            points="233.94 300.53 233.93 304.57 234.27 304.76 234.28 300.75 233.94 300.53"></polygon>
        <path style="fill:#fff"
            d="M235.13,301.23l.34.2a.77.77,0,0,1,.39.67h0l-1.11-.65h0A.25.25,0,0,1,235.13,301.23Z"></path>
        <path style="fill:#fff"
            d="M229,297.63l.34.19a.76.76,0,0,1,.38.67h0l-1.1-.64h0A.25.25,0,0,1,229,297.63Z"></path>
        <polygon
            style="fill:#455a64"
            points="248.67 293.56 250.43 292.55 251.83 291.74 252.12 292.47 252.31 292.97 254.41 298.29 247.69 302.16 247.07 302.52 244.75 303.86 242.99 304.87 242.66 305.07 240.08 298.52 248.67 293.56"></polygon>
        <polygon
            style="fill:#37474f"
            points="227.25 291.06 230.72 293.07 231.69 293.64 232.96 294.38 233.3 294.58 236.69 296.55 237.66 297.11 238.94 297.85 239.28 298.05 240.08 298.52 242.66 305.07 237.32 301.96 236.97 301.76 235.7 301.02 234.73 300.46 231.34 298.48 231 298.28 229.72 297.54 228.76 296.98 226.14 295.45 227.25 291.06"></polygon>
        <polygon style="fill:#FF8700"
            points="89.72 379.37 92.84 377.55 90.53 376.22 89.72 379.37"></polygon>
        <polygon style="fill:#FF8700"
            points="109.33 390.7 112.46 388.88 110.15 387.55 109.33 390.7"></polygon>
        <polygon style="opacity:0.2"
            points="89.72 379.37 92.84 377.55 90.53 376.22 89.72 379.37"></polygon>
        <polygon style="opacity:0.2"
            points="109.33 390.7 112.46 388.88 110.15 387.55 109.33 390.7"></polygon>
        <path
            style="fill:#f5f5f5"
            d="M111.75,394h0a2.48,2.48,0,0,0,.49.38c.64.37,1.18.19,1.36-.37a1.93,1.93,0,0,0,.07-.44s0-.06,0-.09v0h0v-.14h0s0,0,0-.06v0h0v-.17a.29.29,0,0,0,0-.09h0v-.16h0v0h0l-.05-.12v0l0-.06v0h0l0-.07v0l0-.06h0l0,0,0,0-.06-.11h0l-.06-.1,0-.06h0a.76.76,0,0,0-.08-.11h0a.18.18,0,0,0,0-.07l0,0h0l-.08-.1h0l0-.05,0,0,0,0,0,0,0,0h0l0,0,0,0h0l0,0h0l0,0,0,0h0l0,0,0,0,0,0,0,0,0,0h-.06l0,0h0l0,0h0l0,0h0l-.05,0H112l0,0h-.69l0,0h0l-.07.05h0l-.05.05h0l-.06.07h0a.8.8,0,0,0-.08.16h0v0l0,0v0h0l0,0v0h0v.07h0v.11h0v.07h0V392h0v.2h0v.14a1.42,1.42,0,0,0,0,.2v0h0s0,.05,0,.07v0h0c0,.05,0,.1,0,.14l.06.16v0h0l0,.07,0,0,0,.07h0l.08.14,0,.08h0a.16.16,0,0,0,0,.07,2.75,2.75,0,0,0,.19.28l0,0,0,0,0,0,.11.12h0Z"></path>
        <path
            style="fill:#37474f"
            d="M118.19,392.34v-.26a.17.17,0,0,1,0-.07V392h0a.68.68,0,0,0,0-.14h0v0s0-.08,0-.11v0l0-.06a.2.2,0,0,0,0-.07v-.14l0-.05v-.09a.24.24,0,0,1,0-.08l0-.05h0c0-.05,0-.1,0-.14h0a.56.56,0,0,1,0-.12v0l0-.05,0-.07,0,0,0,0,0,0,0-.07,0,0v0l-.06-.13h0v0a.47.47,0,0,1-.05-.1v0l0-.08,0-.06h0l-.12-.21v0l0-.05a.41.41,0,0,1,0-.09l0-.07a.56.56,0,0,0,0-.08l0,0,0,0-.15-.22h0l-.12-.15h0l-.09-.11,0,0h0a1.47,1.47,0,0,1-.1-.13h0l0,0-.07-.07v0l0,0-.05-.06,0,0,0,0,0,0,0,0,0-.06,0,0,0,0-.06-.05,0,0,0,0,0,0,0,0,0,0,0,0,0,0-.06,0,0,0h0l-.11-.08h0l-.11-.07h0l-.08-.05,0,0,0,0,0,0-.06,0,0,0h0l-.11-.05h0l-.11,0h0l-.06,0h-.79l-.09,0h0l-.08,0h0l0,0h0l-.07,0,0,0-.1.05-3.23,1.87h0a1.12,1.12,0,0,1,.25-.11h0l.08,0h.74l.09,0h0l.09,0h0l.1,0,.06,0h0l.08,0,0,0h0l.12.06h0l.16.09.06,0,.07,0h0l.18.12h0l.12.09.07.06h0l.06,0h0l0,0h0l0,0h0l.06,0h0l0,0,0,0h0a.94.94,0,0,1,.1.1l0,0h0l.12.12h0c.1.1.2.21.29.32h0l0,.06h0l.16.21h0l.24.35h0a.35.35,0,0,0,0,.08h0a6.37,6.37,0,0,1,.45.86h0l0,0v0c.06.14.11.28.16.42h0v0l0,.06,0,.06h0a.65.65,0,0,0,0,.13v0h0v.06h0v0l0,.06h0v.06h0v.07a.29.29,0,0,1,0,.09h0v0s0,.07,0,.1h0v0h0v0l0,.18h0v0c0,.08,0,.15,0,.22h0v.2h0v.15h0v.06a.22.22,0,0,0,0,.08h0s0,.05,0,.08a.13.13,0,0,1,0,.06h0a.22.22,0,0,1,0,.08v0h0a.29.29,0,0,1,0,.09v0h0a.29.29,0,0,1,0,.09v0h0l0,.09,0,0h0a1.08,1.08,0,0,1-.08.19s0,0,0,0h0l0,.05,0,0h0l0,.05,0,0h0l0,.06,0,0h0l0,.05,0,0h0l0,0,0,0h0l0,0,0,0h0l-.06,0,0,0,3.22-1.87.09-.06h0l0,0,0,0,.06-.06h0a.46.46,0,0,0,.07-.07l0,0,0-.06,0,0,0-.07v0h0l.06-.09h0a.47.47,0,0,1,0-.1h0l.06-.14h0v0l0-.08v-.06a.19.19,0,0,1,0-.07v-.07a.13.13,0,0,0,0-.06v-.17a.11.11,0,0,1,0-.05v-.08a.17.17,0,0,0,0-.07v0h0c0-.05,0-.09,0-.14h0A.62.62,0,0,0,118.19,392.34Z"></path>
        <path
            style="fill:#455a64"
            d="M114.31,396l0,0,0,0,0,0,0,0,0-.05,0,0,0-.06,0,0,0-.05,0-.05,0-.05,0,0a1.08,1.08,0,0,0,.08-.19l0,0,0-.09v0a.29.29,0,0,0,0-.09v0a.29.29,0,0,0,0-.09v0a.22.22,0,0,0,0-.08v-.06s0,0,0-.08a.22.22,0,0,1,0-.08v-.21h0v-.2h0c0-.07,0-.14,0-.22v0l0-.18v0s0-.07,0-.1v0a.29.29,0,0,0,0-.09v-.13h0l0-.06v-.1h0v0a.65.65,0,0,1,0-.13h0l0-.06,0-.06v0c0-.14-.1-.28-.16-.42v0l0,0a6.37,6.37,0,0,0-.45-.86.35.35,0,0,1,0-.08l-.24-.35h0l-.16-.21h0l0-.06c-.09-.11-.19-.22-.29-.32h0l-.12-.12h0l0,0a.94.94,0,0,0-.1-.1h0l0,0,0,0-.06,0h0l0,0h0l0,0-.06,0-.07-.06-.12-.09h0l-.18-.12-.07,0-.06,0-.16-.09h0l-.12-.06,0,0-.08,0-.06,0-.1,0h0l-.09,0h0l-.09,0h-.74l-.08,0h0a1.12,1.12,0,0,0-.25.11,1.9,1.9,0,0,0-.8,1.74,6,6,0,0,0,2.7,4.68,1.86,1.86,0,0,0,2,.16l.06,0Zm-2.55-2h0l0-.05h0l-.11-.12,0,0,0,0,0,0a2.75,2.75,0,0,1-.19-.28.16.16,0,0,1,0-.07h0l0-.08-.08-.14h0l0-.07,0,0,0-.07h0v0l-.06-.16s0-.09,0-.14h0v0s0,0,0-.07h0v0a1.42,1.42,0,0,1,0-.2v-.14h0V392h0v-.07h0v-.07h0v0h0v-.07h0v-.07h0v0s0,0,0,0h0v0l0,0v0h0a.8.8,0,0,1,.08-.16h0l.06-.07h0l.05-.05h0l.07-.05h0l0,0h.69l0,0h.09l.05,0h0l0,0h0l0,0h0l0,0h.06l0,0,0,0,0,0,0,0,0,0h0l0,0,0,0h0l0,0h0l0,0,0,0h0l0,0,0,0,0,0,0,0,0,.05h0l.08.1h0l0,0a.18.18,0,0,1,0,.07h0a.76.76,0,0,1,.08.11h0l0,.06.06.1h0l.06.11,0,0,0,.05h0l0,.06v0l0,.07h0v0l0,.06v0l.05.12h0v0h0V393h0a.29.29,0,0,1,0,.09v.17h0v0s0,0,0,.06h0v.14h0v0s0,.06,0,.09a1.93,1.93,0,0,1-.07.44c-.18.56-.72.74-1.36.37a2.48,2.48,0,0,1-.49-.38Z"></path>
        <path
            style="fill:#f5f5f5"
            d="M92.18,382.76h0a2.43,2.43,0,0,0,.48.38c.64.37,1.18.2,1.37-.36a1.53,1.53,0,0,0,.06-.45v-.09h0v-.16h0V382h0v-.17h0a.29.29,0,0,1,0-.09h0v-.11l0-.06h0a.49.49,0,0,0,0-.11v-.05s0,0,0-.06v0h0l0-.07v0l0-.05h0l0,0,0,0-.06-.11v0l-.06-.1,0-.06h0a.83.83,0,0,1-.08-.12h0a.18.18,0,0,1,0-.07l0,0h0l-.09-.09h0l0,0,0,0,0,0,0,0,0,0h0l0,0,0,0,0,0,0,0h0l0,0,0,0h0l0,0,0,0,0,0,0,0,0,0,0,0h0l0,0,0,0h0l0,0h0l-.06,0h0l-.06,0h0l0,0h-.72l0,0h0l-.06,0h0l-.07.06h0l0,0h0l0,.07h0a.6.6,0,0,0-.08.16h0v0h0v.05h0v.06h0v.12h0v.06h0v.06h0v.13s0,0,0,.07h0v0s0,.05,0,.07v0c0,.07,0,.14,0,.21v0h0a.64.64,0,0,1,0,.07v0h0c0,.05,0,.1.05.15l.06.16v0h0l0,.07,0,0,0,.07h0l.07.15a.22.22,0,0,1,0,.08h0l0,.06a2.83,2.83,0,0,0,.2.28l0,0,0,0,0,0a.69.69,0,0,0,.11.13h0Z"></path>
        <path
            style="fill:#37474f"
            d="M98.63,381.1v-.4s0-.09,0-.13h0a.5.5,0,0,1,0-.12v-.18l0-.06v-.1l0-.06v0l0-.08v-.05h0c0-.05,0-.09,0-.14h0a.5.5,0,0,0,0-.13v-.06l0-.07,0,0,0-.05v0l0-.08,0,0h0l-.06-.13h0l0,0a.54.54,0,0,0,0-.11h0a.56.56,0,0,0,0-.08l0-.07h0a2.12,2.12,0,0,0-.11-.21v0l0-.05-.06-.08,0-.08-.06-.08v0l0,0a1.77,1.77,0,0,0-.16-.22h0l-.11-.15h0a.76.76,0,0,0-.08-.11l0,0h0l-.11-.12h0l0,0-.07-.08h0l0-.05,0-.05,0,0,0-.05,0-.05,0,0-.06-.05,0,0,0,0,0-.05,0,0,0,0-.06-.05,0,0s0,0,0,0a.1.1,0,0,1,0,0h0l-.06-.05,0,0h0l-.12-.07h0l-.1-.06,0,0-.09-.05h0l0,0h0l0,0,0,0h0l-.1-.05h0l-.11,0h-.06l0,0h-.79l-.1,0h0l-.07,0h-.1l-.07,0h0l-.1.05-3.22,1.88h0l.25-.11h0l.08,0h.62l.08,0h0l.09,0h0l.1,0h0l.11,0,.05,0h0l.09,0,0,0h0l.11.05h0l.16.08.06,0,.07,0h0a.94.94,0,0,1,.18.12h0l.12.09.07,0h0l.06.05h0l0,0h0l0,0h0l0,.05h0l0,0,0,0h0l.1.09,0,0,0,0h0l.11.12h0l.29.33h0l0,.05h0a1.56,1.56,0,0,1,.16.2h0a2.82,2.82,0,0,1,.24.36h0l.05.07h0a6,6,0,0,1,.45.87h0l0,0h0c.06.14.11.28.16.42h0v0l0,.06,0,.06v0h0l0,.12v0h0l0,.06h0v.1h0l0,.05h0v.07s0,.06,0,.09h0v0s0,.07,0,.11h0v0h0v0a1,1,0,0,1,0,.17h0v0c0,.07,0,.14,0,.22h0a1,1,0,0,1,0,.17v0h0v.15h0s0,0,0,.06v.08h0a.25.25,0,0,0,0,.08s0,0,0,.06h0s0,.06,0,.09v0h0s0,.06,0,.09v0h0a.29.29,0,0,0,0,.09v0h0a.24.24,0,0,1,0,.08l0,.05h0a1.42,1.42,0,0,1-.08.18l0,0h0l0,0,0,.05h0l0,.05,0,0h0l0,0,0,0h0l0,.05,0,0h0l0,0,0,0h0a.1.1,0,0,0,0,0h0l0,0,0,0L97.84,383l.08,0,0,0,0,0,0,0,.07-.06h0l.06-.08,0,0,0-.05,0,0a.43.43,0,0,0,0-.07h0a.41.41,0,0,0,0-.09h0a.41.41,0,0,0,0-.09h0a.59.59,0,0,0,.06-.14h0v0l0-.09V382a.24.24,0,0,0,0-.08v-.2a.13.13,0,0,0,0-.06v-.16a.22.22,0,0,1,0-.08v0h0v-.13h0Z"></path>
        <path
            style="fill:#455a64"
            d="M94.75,384.75a.1.1,0,0,1,0,0l0,0,0,0,0,0,0-.05,0,0,0,0,0,0,0-.05,0-.05,0,0,0-.06a1.42,1.42,0,0,0,.08-.18l0-.05a.24.24,0,0,0,0-.08l0,0a.29.29,0,0,1,0-.09v0s0-.06,0-.09v-.05s0-.06,0-.09,0,0,0-.06a.25.25,0,0,1,0-.08v-.08s0,0,0-.06v-.15h0v0a1,1,0,0,0,0-.17h0c0-.08,0-.15,0-.22v0a1,1,0,0,0,0-.17v0s0-.07,0-.11v0s0-.06,0-.09v-.07l0-.05h0V382l0-.06h0v0l0-.12v0l0-.06,0-.06v0c-.05-.14-.1-.28-.16-.42h0l0,0a6,6,0,0,0-.45-.87l-.05-.07a2.82,2.82,0,0,0-.24-.36h0a1.56,1.56,0,0,0-.16-.2h0l0-.05-.29-.33h0l-.11-.12,0,0,0,0-.1-.09h0l0,0,0,0,0-.05h0l0,0h0l0,0-.06-.05-.07,0-.12-.09h0a.94.94,0,0,0-.18-.12l-.07-.05-.06,0-.16-.08h0l-.11-.05,0,0-.09,0-.05,0-.11,0h0l-.1,0h0l-.09,0h0l-.08,0h-.57l0,0-.08,0h0l-.25.11A1.92,1.92,0,0,0,90,380a6,6,0,0,0,2.7,4.68,1.89,1.89,0,0,0,2,.17l0,0Zm-2.55-2h0l0-.05h0a.69.69,0,0,1-.11-.13l0,0,0,0,0,0a2.83,2.83,0,0,1-.2-.28l0-.06h0a.22.22,0,0,0,0-.08l-.07-.15h0l0-.07,0,0,0-.07h0v0l-.06-.16s0-.1-.05-.15h0v0l0-.08h0v0c0-.07,0-.14,0-.21v0s0-.05,0-.07v0h0s0-.05,0-.07v-.13h0v-.06h0v-.06h0v-.12h0v-.06h0v-.05h0s0,0,0,0h0a.6.6,0,0,1,.08-.16h0a.56.56,0,0,1,0-.08h0l0,0h0l.07-.06h0l.06,0h0l0,0h.72l0,0h0l.06,0h0l.06,0h0l0,0h0l0,0,0,0h0l0,0,0,0,0,0,0,0,0,0,0,0h0l0,0,0,0h0l0,0,0,0,0,0,0,0h0l0,0,0,0,0,0,0,0,0,0h0l.09.09h0l0,0a.18.18,0,0,0,0,.07h0a.83.83,0,0,0,.08.12h0l0,.06.06.1v0l.06.11,0,0,0,0h0l0,.05v0l0,.07h0v0l0,.06v.05a.49.49,0,0,1,0,.11h0l0,.06v.11h0a.29.29,0,0,0,0,.09h0V382h0v.07h0v.16h0v.09a1.53,1.53,0,0,1-.06.45c-.19.56-.73.73-1.37.36a2.43,2.43,0,0,1-.48-.38Z"></path>
        <polygon
            style="fill:#FF8700"
            points="102.93 378.82 102.93 378.26 102.95 372.12 110.91 367.5 99.45 360.88 85.7 368.87 102.93 378.82"></polygon>
        <polygon
            style="fill:#fff;opacity:0.4"
            points="102.93 378.82 102.93 378.26 102.95 372.12 110.91 367.5 99.45 360.88 85.7 368.87 102.93 378.82"></polygon>
        <polygon style="fill:#FF8700"
            points="109.33 371.84 99.45 366.15 91.04 371.04 103.95 378.48 109.33 371.84"></polygon>
        <polygon style="fill:#FF8700"
            points="118.87 390.29 118.86 396.2 132.61 388.21 132.62 382.3 118.87 390.29"></polygon>
        <path style="fill:#FF8700"
            d="M132.62,382.3c-.27-.54-.5-1-.73-1.42s-.36-.7-.57-1.12l-13.75,8,1.3,2.54Z"></path>
        <polygon style="fill:#FF8700"
            points="117.57 387.75 131.32 379.76 127.22 376.35 113.46 384.34 117.57 387.75"></polygon>
        <path
            style="fill:#FF8700"
            d="M117.57,387.75l-4.11-3.41h0l-10.53-5.52L85.7,368.87l0,8.17,4,2.33.82-3.15,2.32,1.33,2.33,1.35L96,383l6.94,4,6.42,3.71.82-3.16,2.31,1.34,2.33,1.35.8,4.08,3.27,1.89v-5.91Z"></path>
        <polygon style="fill:#FF8700"
            points="87.28 368.87 91.04 371.04 99.45 366.15 99.45 361.8 87.28 368.87"></polygon>
        <polygon style="fill:#FF8700"
            points="111.73 368.87 99.45 361.8 99.45 366.15 109.33 371.84 111.73 368.87"></polygon>
        <polygon style="opacity:0.30000000000000004"
            points="87.28 368.87 91.04 371.04 99.45 366.15 99.45 361.8 87.28 368.87"></polygon>
        <polygon style="opacity:0.2"
            points="111.73 368.87 99.45 361.8 99.45 366.15 109.33 371.84 111.73 368.87"></polygon>
        <polygon style="fill:#fff;opacity:0.1"
            points="109.33 371.84 99.45 366.15 91.04 371.04 103.95 378.48 109.33 371.84"></polygon>
        <polygon style="opacity:0.4"
            points="118.87 390.29 118.86 396.2 132.61 388.21 132.62 382.3 118.87 390.29"></polygon>
        <path style="opacity:0.2"
            d="M132.62,382.3c-.27-.54-.5-1-.73-1.42s-.36-.7-.57-1.12l-13.75,8,1.3,2.54Z"></path>
        <path
            style="opacity:0.5"
            d="M117.57,387.75l-4.11-3.41h0l-10.53-5.52L85.7,368.87l0,8.17,4,2.33.82-3.15,2.32,1.33,2.33,1.35L96,383l6.94,4,6.42,3.71.82-3.16,2.31,1.34,2.33,1.35.8,4.08,3.27,1.89v-5.91Z"></path>
        <polygon
            style="fill:#455a64"
            points="124.7 369.45 124.51 368.92 124.37 368.56 122.44 369.68 120.65 370.73 110.62 376.55 113.46 384.34 114.03 384.01 115.82 382.97 118.19 381.59 118.83 381.22 127.22 376.35 124.7 369.45"></polygon>
        <polygon
            style="fill:#37474f"
            points="110.62 376.55 110.5 376.48 110.14 376.28 108.84 375.52 107.85 374.95 102.95 372.12 102.93 378.26 102.93 378.82 105.3 380.06 106.31 380.59 107.64 381.29 108 381.48 113.46 384.34 110.62 376.55"></polygon>
        <path
            style="fill:#fff"
            d="M130.35,386.78l1.07-.62a1,1,0,0,0,.51-.87v-1.07a.41.41,0,0,0-.62-.36l-1.07.63a1,1,0,0,0-.5.87v1.06A.41.41,0,0,0,130.35,386.78Z"></path>
        <polygon style="fill:#263238"
            points="122.39 391.84 122.39 392.47 129.25 388.48 129.25 387.85 122.39 391.84"></polygon>
        <path
            style="fill:#fff"
            d="M121.29,389.68l-1.23.72a1,1,0,0,0-.5.87v1.07a.4.4,0,0,0,.61.35l1.24-.71a1,1,0,0,0,.5-.87V390A.41.41,0,0,0,121.29,389.68Z"></path>
        <polygon style="fill:#fafafa"
            points="129.73 388.2 131.92 386.93 131.92 386.3 129.73 387.57 129.73 388.2"></polygon>
        <polygon style="fill:#fafafa"
            points="121.91 392.12 119.55 393.49 119.55 394.11 121.91 392.75 121.91 392.12"></polygon>
        <polygon
            style="fill:#263238"
            points="122.39 391.41 129.25 387.42 129.26 385.06 125.75 387.1 122.39 389.04 122.39 391.41"></polygon>
        <polygon style="fill:#e0e0e0"
            points="102.93 379.92 102.93 385.99 103.35 386.22 103.35 380.17 102.93 379.92"></polygon>
        <path
            style="fill:#e0e0e0"
            d="M104.28,380.83l.42.24a.91.91,0,0,1,.46.81h0l-1.35-.78h0A.31.31,0,0,1,104.28,380.83Z"></path>
        <polygon
            style="fill:#FF8700"
            points="110.62 376.55 124.37 368.56 116.7 364.13 110.91 367.5 102.95 372.12 110.62 376.55"></polygon>
        <polygon style="fill:#263238"
            points="253.29 439.67 249.72 437.6 252.69 435.88 253.29 439.67"></polygon>
        <polygon style="fill:#263238"
            points="280.25 424.1 276.69 422.03 279.66 420.31 280.25 424.1"></polygon>
        <path
            style="fill:#f5f5f5"
            d="M277.38,427.32h0a2.66,2.66,0,0,1-.51.39c-.66.38-1.22.2-1.41-.38a1.59,1.59,0,0,1-.07-.46.28.28,0,0,1,0-.09v0h0v-.16h0s0-.05,0-.07v0h0v-.16h0s0-.06,0-.09v-.13l0-.06h0s0-.08,0-.12v0l0-.07v0h0l0-.07v0l0-.05h0l0-.05,0,0,.06-.11v0a.86.86,0,0,1,.07-.1l0-.06h0a.83.83,0,0,1,.08-.12h0l.05-.07,0,0h0a.39.39,0,0,1,.08-.1h0l0-.05,0,0,0,0,0,0,0,0h0l0,0,0,0h0l0,0h0l0,0,0,0h0l0,0,0,0,0,0,0,0,0,0,0,0h0l0,0,0,0h0l.05,0h0l.06,0h0l.06,0h0l.05,0h.77l.06,0h0l.07.06h0s0,0,.05.05h0l.05.07h0a.89.89,0,0,1,.08.17h0v0l0,0v0h0l0,0v0h0v.06h0V425h0v.14h0v.08h0v.2h0v.13a1.7,1.7,0,0,1,0,.22v0h0a.19.19,0,0,1,0,.07v0h0a.88.88,0,0,1,0,.15l-.06.16v0h0l0,.08,0,0,0,.07h0l-.08.15a.56.56,0,0,0-.05.08h0a.25.25,0,0,0,0,.07l-.2.29,0,0,0,0,0,0a.69.69,0,0,1-.11.13h0Z"></path>
        <path
            style="fill:#263238"
            d="M270.71,425.6v-.27a.19.19,0,0,0,0-.08v-.06a.78.78,0,0,1,0-.14h0v0a.5.5,0,0,0,0-.12v-.08s0,0,0-.06v0l0-.06v-.05s0,0,0-.06l0-.06v0a.24.24,0,0,1,0-.08v-.07a.58.58,0,0,1,.05-.14h0s0-.08,0-.13v0l0-.05,0-.06v0l0-.05v0a.3.3,0,0,1,0-.08v-.06l.06-.13h0l0,0a.54.54,0,0,0,.05-.11h0a.36.36,0,0,0,0-.09.16.16,0,0,0,0-.07h0l.12-.21v0l0-.06.05-.08.05-.08.06-.09,0,0v0l.16-.23h0l.12-.15h0l.09-.11,0,0h0a1.47,1.47,0,0,1,.1-.13h0l0,0,.07-.07,0,0,.05,0s0,0,.05-.05l0,0,.05-.06.05,0,0,0,.06-.06,0,0,0,0,.06-.05,0,0,0,0,.06,0,0,0,.05,0,0,0,0,0,.07-.05,0,0h0l.11-.08h0l.11-.07h0l.09-.05,0,0,.05,0h0l.05,0,0,0h0l.11,0h0l.11-.05h0l0,0h.08l.05,0h.08l.05,0h.74l.08,0h0l0,0h0l.08,0,0,0,.11.05,3.33,1.94h0a1.23,1.23,0,0,0-.26-.12h0l-.07,0h-.65l-.09,0h0l-.09,0h0l-.1,0h0l-.1,0-.06,0h0l-.09,0,0,0h0l-.12.06h0l-.17.09-.06,0-.08.05h0l-.18.12h0l0,0-.13.09-.07.06h0l-.06,0h0l0,0h0l0,0h0l-.06.05h0l0,0,0,0h0l-.1.09,0,0h0l-.12.13h0l-.3.34h0l0,.06h0l-.16.21h0c-.09.12-.17.24-.25.37h0l0,.07h0a6.42,6.42,0,0,0-.47.9h0l0,.05h0c-.06.14-.12.29-.17.43h0v0a.14.14,0,0,1,0,.06v.06h0a.5.5,0,0,1,0,.13v0h0v.06h0v0l0,.06h0v.07h0v.07a.29.29,0,0,1,0,.09h0v0a.43.43,0,0,0,0,.11h0v0h0v0a1.1,1.1,0,0,0,0,.18h0v0c0,.08,0,.15,0,.22v0h0a1,1,0,0,0,0,.17v0h0v.15h0a.2.2,0,0,1,0,.07V428h0a.22.22,0,0,1,0,.08.13.13,0,0,1,0,.06h0s0,.06,0,.09v.05h0a.3.3,0,0,1,0,.1v0h0l0,.09v0h0l0,.09v.05h0a1.54,1.54,0,0,0,.08.19l0,0h0l0,.05,0,.05h0l0,.05,0,0h0l0,.06,0,0h0l.05.05,0,0h0s0,0,0,0l0,0h0l.06,0,0,0h0l.06,0,0,0-3.34-1.94-.08,0,0,0-.06,0,0,0-.06-.06h0l-.07-.07,0,0s0,0-.05-.05l0,0-.05-.07v0h0L271,427h0a.93.93,0,0,1-.05-.1h0l-.06-.14v-.05l0-.09v-.06a.19.19,0,0,1,0-.08v-.06s0-.05,0-.07v-.17a.09.09,0,0,0,0-.05V426a.25.25,0,0,1,0-.08v-.05h0s0-.09,0-.13h0A.62.62,0,0,1,270.71,425.6Z"></path>
        <path
            style="fill:#455a64"
            d="M274.76,429.41l.06,0a1.93,1.93,0,0,0,2-.17,6.13,6.13,0,0,0,2.79-4.84,1.94,1.94,0,0,0-.82-1.8,1.23,1.23,0,0,0-.26-.12h0l-.07,0h-.65l-.09,0h0l-.09,0h0l-.1,0h0l-.1,0-.06,0-.09,0,0,0-.12.06h0l-.17.09-.06,0-.08.05-.18.12,0,0-.13.09-.07.06-.06,0,0,0h0l0,0h0l-.06.05,0,0,0,0h0l-.1.09,0,0h0l-.12.13h0l-.3.34,0,.06h0l-.16.21h0c-.09.12-.17.24-.25.37l0,.07a6.42,6.42,0,0,0-.47.9l0,.05h0c-.06.14-.12.29-.17.43v0a.14.14,0,0,1,0,.06v.06h0a.5.5,0,0,1,0,.13v0h0v.1l0,.06h0v.14a.29.29,0,0,1,0,.09v0a.43.43,0,0,0,0,.11v0a1.1,1.1,0,0,0,0,.18v0c0,.08,0,.15,0,.22v0a1,1,0,0,0,0,.17v0h0v.15a.2.2,0,0,1,0,.07V428a.22.22,0,0,1,0,.08.13.13,0,0,1,0,.06s0,.06,0,.09v.05a.3.3,0,0,1,0,.1v0l0,.09v0l0,.09,0,.05a1.54,1.54,0,0,0,.08.19l0,0,0,.05,0,.05,0,.05,0,0,0,.06,0,0,.05.05,0,0s0,0,0,0l0,0,.06,0Zm2.6-2.06a2.66,2.66,0,0,1-.51.39c-.66.38-1.22.2-1.41-.38a1.59,1.59,0,0,1-.07-.46.28.28,0,0,1,0-.09v0h0v-.16h0s0-.05,0-.07v0h0v-.16h0s0-.06,0-.09v-.13l0-.06h0s0-.08,0-.12v0l0-.07v0h0l0-.07v0l0-.05h0l0-.05,0,0,.06-.11v0a.86.86,0,0,1,.07-.1l0-.06h0a.83.83,0,0,1,.08-.12h0l.05-.07,0,0h0a.39.39,0,0,1,.08-.1h0l0-.05,0,0,0,0,0,0,0,0h0l0,0,0,0h0l0,0h0l0,0,0,0h0l0,0,0,0,0,0,0,0,0,0,0,0h0l0,0,0,0h0l.05,0h0l.06,0h0l.06,0h0l.05,0h.77l.06,0h0l.07.06h0s0,0,.05.05h0l.05.07h0a.89.89,0,0,1,.08.17h0v0l0,0v0h0s0,0,0,.05v0h0v.06h0V425h0v.14h0v.08h0v.2h0v.13a1.7,1.7,0,0,1,0,.22v0h0a.19.19,0,0,1,0,.07v0h0a.88.88,0,0,1,0,.15l-.06.16v0h0l0,.08,0,0,0,.07h0l-.08.15a.56.56,0,0,0-.05.08h0a.25.25,0,0,0,0,.07l-.2.29,0,0,0,0,0,0a.69.69,0,0,1-.11.13h0l-.05.05h0Z"></path>
        <path
            style="fill:#f5f5f5"
            d="M250.56,442.7h0a2.31,2.31,0,0,1-.51.39c-.66.38-1.22.21-1.41-.37a1.68,1.68,0,0,1-.06-.47v-.09h0V442h0a.15.15,0,0,0,0-.07h0v-.19a.29.29,0,0,0,0-.09h0v-.12l0,0h0v0h0s0-.07,0-.11v-.05l0-.06v0l0-.07v0l0-.05h0l0,0,0-.05.06-.11,0,0,.06-.1,0-.06h0l.08-.12h0l0-.07,0,0h0l.08-.1h0l0-.05,0,0,0,0,0,0,0,0h0l0,0,0,0h0l0,0h0l0,0,0,0h0l0,0,0,0,0,0,0,0,0,0H250l0,0h0l.05,0h0l.06,0h0l.06,0h0l.05,0H251l0,0h0l0,0h0l.07.05h0l0,.05h0l0,.07h0a.8.8,0,0,1,.08.16h0v0l0,.05h0l0,0h0v.07h0v.19h0v.07h0v.14a.15.15,0,0,0,0,.07h0v0a.2.2,0,0,0,0,.07v0a1.55,1.55,0,0,1,0,.21v0h0a.19.19,0,0,1,0,.07v0h0c0,.05,0,.1,0,.15a.77.77,0,0,1-.07.16v0l0,.07,0,0,0,.07h0l-.08.15-.05.08h0a.43.43,0,0,1,0,.07,3,3,0,0,1-.2.29l0,0,0,0,0,0a.69.69,0,0,1-.11.13h0A.12.12,0,0,1,250.56,442.7Z"></path>
        <path
            style="fill:#37474f"
            d="M243.89,441v-.28a.17.17,0,0,0,0-.07v-.05h0c0-.05,0-.1,0-.14h0v0a.5.5,0,0,0,0-.12v-.07a.2.2,0,0,0,0-.07v0l0-.06v-.11l0-.06v0s0-.05,0-.08l0,0v0s0-.09,0-.14h0v0l.05-.12v0l0,0,0-.07,0,0,0-.05v0l0-.08v0h0l.06-.14h0v0a.37.37,0,0,0,.05-.11h0l.05-.09,0-.06v0l.12-.21v0l0-.05.06-.09,0-.08.06-.08,0,0,0,0c0-.07.1-.15.16-.22h0l.11-.15h0l.09-.11,0,0h0a.69.69,0,0,1,.11-.13h0l0,0a.27.27,0,0,1,.07-.08h0l0-.05.05-.06,0,0,.05-.05.05-.05,0,0,0-.06,0,0,0,0,.06-.05,0,0,0,0,0-.05,0,0,.05,0,.05,0,0,0,.06,0,0,0h0l.12-.08h0l.11-.07h0l.09,0,0,0,0,0,0,0,.05,0,0,0h0l.11-.05h0l.12,0h.05l.06,0h.94l.08,0h0l0,0h0l.08,0,0,0,.11.05L252,438h0a1.36,1.36,0,0,0-.25-.11h0l-.08,0H251l-.09,0h0l-.1,0h0l-.1,0h0l-.1,0-.06,0h0l-.09,0,0,0h0l-.12.06h0a.7.7,0,0,0-.17.09l-.06,0-.08.05h0l-.18.12h0l-.12.09-.08.06h0l-.06.05h0l0,0h0l0,0h0l-.06.05h0l0,0,0,0h0l-.1.1,0,0,0,0h0l-.12.12h0c-.1.11-.2.22-.29.34h0l0,.06h0l-.17.21h0c-.09.12-.17.25-.25.37h0l0,.08h0a7.56,7.56,0,0,0-.47.89h0l0,.05h0c-.06.15-.12.29-.17.44h0v0l0,.06,0,.06v0h0l0,.13v0h0l0,.06h0v.05l0,.05h0v.06h0v.07s0,.06,0,.09h0v0s0,.08,0,.11h0v0h0v0c0,.06,0,.12,0,.19h0v0a1.79,1.79,0,0,0,0,.23h0a1.09,1.09,0,0,0,0,.18v0h0a.86.86,0,0,0,0,.16h0v.06a.22.22,0,0,0,0,.08h0v.08a.13.13,0,0,1,0,.06h0s0,.05,0,.08v.05h0a.44.44,0,0,1,0,.1v0h0l0,.09v0h0l0,.09,0,.05h0a1.08,1.08,0,0,0,.08.19l0,0h0l0,0,0,0h0l0,.05,0,0h0l0,.06,0,0h0l0,.05,0,0h0s0,0,0,0l0,0h0a.1.1,0,0,0,0,0l0,0h0l.06,0,0,0-3.34-1.94-.08-.05,0,0-.06,0,0,0-.07-.06h0l-.07-.07,0,0,0-.06,0,0-.05-.07v0h0l-.06-.09h0a.41.41,0,0,0,0-.09h0l-.06-.14h0l0,0,0-.09v-.06a.19.19,0,0,1,0-.07v-.07s0,0,0-.07v-.22a.13.13,0,0,1,0-.06v0s0-.05,0-.08v0h0v-.14h0Z"></path>
        <path
            style="fill:#455a64"
            d="M247.94,444.79l.06,0a1.94,1.94,0,0,0,2-.16,6.16,6.16,0,0,0,2.79-4.85A1.94,1.94,0,0,0,252,438a1.36,1.36,0,0,0-.25-.11h0l-.08,0-.06,0H251l-.09,0h0l-.1,0h0l-.1,0h0l-.1,0-.06,0-.09,0,0,0-.12.06h0a.7.7,0,0,0-.17.09l-.06,0-.08.05-.18.12,0,0-.12.09-.08.06-.06.05,0,0h0l0,0h0l-.06.05,0,0,0,0h0l-.1.1,0,0,0,0-.12.12h0c-.1.11-.2.22-.29.34l0,.06h0l-.17.21h0c-.09.12-.17.25-.25.37l0,.08a7.56,7.56,0,0,0-.47.89l0,.05h0c-.06.15-.12.29-.17.44v0l0,.06,0,.06v0l0,.13v0h0l0,.06v.05l0,.05h0v.13s0,.06,0,.09v0s0,.08,0,.11v0c0,.06,0,.12,0,.19v0a1.79,1.79,0,0,0,0,.23h0a1.09,1.09,0,0,0,0,.18v0h0a.81.81,0,0,0,0,.16v.06a.19.19,0,0,0,0,.08v.08a.15.15,0,0,1,0,.07s0,.05,0,.08v.05a.44.44,0,0,1,0,.1v0l0,.09v0l0,.09,0,.05a1.08,1.08,0,0,0,.08.19l0,.06,0,0,0,.05,0,.05,0,0,0,.06,0,0,0,.05,0,0s0,0,0,0l0,0a.1.1,0,0,0,0,0Zm2.6-2.06a2.31,2.31,0,0,1-.51.39c-.66.38-1.22.21-1.41-.37a1.68,1.68,0,0,1-.06-.47v-.09h0V442h0a.15.15,0,0,0,0-.07h0v-.19a.29.29,0,0,0,0-.09h0v-.12l0,0h0v0h0s0-.07,0-.11v-.05l0-.06v0l0-.07v0l0-.05h0l0,0,0-.05.06-.11,0,0,.06-.1,0-.06h0l.08-.12h0l0-.07,0,0h0l.08-.1h0l0-.05,0,0,0,0,0,0,0,0h0l0,0,0,0h0l0,0h0l0,0,0,0h0l0,0,0,0,0,0,0,0,0,0H250l0,0h0l.05,0h0l.06,0h0l.06,0h0l.05,0H251l0,0h0l0,0h0l.07.05h0l0,.05h0l0,.07h0a.8.8,0,0,1,.08.16h0v0s0,0,0,.05h0s0,0,0,0h0v.07h0v.07h0v.12h0v.07h0v.13a.22.22,0,0,0,0,.08h0v0a.2.2,0,0,0,0,.07v0a1.55,1.55,0,0,1,0,.21v0h0a.19.19,0,0,1,0,.07v0h0c0,.05,0,.1,0,.15a.77.77,0,0,1-.07.16v0l0,.07,0,0,0,.07h0l-.08.15-.05.08h0a.43.43,0,0,1,0,.07,3,3,0,0,1-.2.29l0,0,0,0,0,0a.69.69,0,0,1-.11.13h0a.12.12,0,0,1-.05.05h0Z"></path>
        <polygon
            style="fill:#37474f"
            points="258.88 417.25 258.86 411.68 287.69 395.03 287.76 419.76 280.25 424.1 279.66 420.31 276.69 422.03 273.94 423.62 273.37 428.07 258.93 436.41 258.9 426.49 258.88 417.25"></polygon>
        <path
            style="fill:#263238"
            d="M260.35,412.54l25.87-14.94.06,21.3-4.89,2.83-.6-3.79-8.23,4.76-.57,4.45-11.58,6.69Zm11.73,9.84,9.1-5.25.6,3.78,4-2.3-.05-20.12-24.85,14.34.06,20.12,10.59-6.12Z"></path>
        <polygon style="fill:#263238"
            points="258.88 417.25 237.86 405.04 237.84 399.46 258.86 411.68 258.88 417.25"></polygon>
        <polygon style="fill:#455a64"
            points="258.86 411.68 237.84 399.46 266.68 382.82 287.69 395.03 258.86 411.68"></polygon>
        <polygon style="fill:#fff;opacity:0.1"
            points="258.86 411.68 237.84 399.46 266.68 382.82 287.69 395.03 258.86 411.68"></polygon>
        <polygon
            style="fill:#e0e0e0"
            points="258.9 426.49 258.93 436.41 253.29 439.67 252.69 435.88 249.72 437.6 246.97 439.19 246.4 443.64 242.16 446.09 242.13 436.18 258.9 426.49"></polygon>
        <polygon
            style="opacity:0.2"
            points="258.9 426.49 258.93 436.41 253.29 439.67 252.69 435.88 249.72 437.6 246.97 439.19 246.4 443.64 242.16 446.09 242.13 436.18 258.9 426.49"></polygon>
        <polygon style="fill:#e0e0e0"
            points="242.13 436.18 242.16 446.09 221.14 433.88 221.11 423.96 242.13 436.18"></polygon>
        <polygon style="opacity:0.1"
            points="242.13 436.18 242.16 446.09 221.14 433.88 221.11 423.96 242.13 436.18"></polygon>
        <polygon
            style="fill:#455a64"
            points="258.88 417.25 252.71 420.81 250.32 422.19 247.16 424.01 246.31 424.51 244.35 425.64 242.13 436.18 249.89 431.69 250.74 431.2 253.9 429.38 256.29 428 258.9 426.49 258.88 417.25"></polygon>
        <polygon
            style="fill:#455a64"
            points="231.34 418.07 227.01 415.56 223.34 413.42 222.9 415.48 222.58 417.02 221.11 423.96 228.04 427.99 229.58 428.88 235.31 432.21 239.64 434.73 242.13 436.18 244.35 425.64 231.34 418.07"></polygon>
        <polygon
            style="fill:#fff;opacity:0.1"
            points="231.34 418.07 227.01 415.56 223.34 413.42 222.9 415.48 222.58 417.02 221.11 423.96 228.04 427.99 229.58 428.88 235.31 432.21 239.64 434.73 242.13 436.18 244.35 425.64 231.34 418.07"></polygon>
        <polygon style="fill:#e0e0e0"
            points="244.35 425.64 223.34 413.42 237.86 405.04 258.88 417.25 244.35 425.64"></polygon>
        <polygon style="opacity:0.2"
            points="244.35 425.64 223.34 413.42 237.86 405.04 258.88 417.25 244.35 425.64"></polygon>
        <path
            style="fill:#FF8700"
            d="M240.4,441.62a.82.82,0,0,1-1.23.72l-.63-.37a2.13,2.13,0,0,1-1.07-1.85v-.33l2.93,1.7Z"></path>
        <path
            style="fill:#fff"
            d="M238.7,436.2l.62.36a2.14,2.14,0,0,1,1.07,1.85v3.08l-2.93-1.7v-2.88A.83.83,0,0,1,238.7,436.2Z"></path>
        <path
            style="fill:#fff"
            d="M222.87,428.43a.82.82,0,0,1,1.23-.72l.24.14a2.16,2.16,0,0,1,1.07,1.86v3.08l-2.55-1.48Z"></path>
        <path style="fill:#FF8700"
            d="M225.42,432.79v.13a.83.83,0,0,1-1.24.71l-.23-.14a2.12,2.12,0,0,1-1.07-1.85v-.33Z"></path>
        <path
            style="fill:#fff;opacity:0.5"
            d="M240.4,441.62a.82.82,0,0,1-1.23.72l-.63-.37a2.13,2.13,0,0,1-1.07-1.85v-.33l2.93,1.7Z"></path>
        <path style="fill:#fff;opacity:0.5"
            d="M225.42,432.79v.13a.83.83,0,0,1-1.24.71l-.23-.14a2.12,2.12,0,0,1-1.07-1.85v-.33Z"></path>
        <polygon style="fill:#FF8700"
            points="390.35 401.92 387.52 400.27 389.28 399.26 390.35 401.92"></polygon>
        <polygon style="fill:#FF8700"
            points="410.78 390.12 407.96 388.48 409.72 387.46 410.78 390.12"></polygon>
        <polygon style="fill:#37474f"
            points="390.35 401.92 387.52 400.27 389.28 399.26 390.35 401.92"></polygon>
        <polygon style="fill:#37474f"
            points="410.78 390.12 407.96 388.48 409.72 387.46 410.78 390.12"></polygon>
        <path
            style="fill:#f5f5f5"
            d="M408.52,393.06h0a2.33,2.33,0,0,1-.44.35c-.59.34-1.08.18-1.25-.34a1.22,1.22,0,0,1-.06-.41v-.09h0v-.13h0a.13.13,0,0,0,0-.06h0v-.14h0a.29.29,0,0,1,0-.09h0V392h0l0-.1v0l0-.06v0h0a.14.14,0,0,1,0-.06v0l0-.05h0l0,0,0,0,.06-.1v0a.41.41,0,0,1,.05-.09l0,0h0a.41.41,0,0,1,.07-.11h0l.05-.06,0,0h0l.08-.09h0l0,0,0,0,0,0,0,0,0,0h0l0,0,0,0h0l0,0h0l0,0,0,0h0l0,0,0,0,0,0h0l0,0H408l0,0h0l0,0h0l.05,0h0l.05,0h0l0,0H409l0,0h0a.12.12,0,0,1,.05.05h0s0,0,0,0h0l.05.06h0a1.09,1.09,0,0,1,.08.15h0v0l0,0h0l0,0h0v.06h0v.1h0v.06h0v.07h0v.12a.13.13,0,0,1,0,.06h0v.13a1.16,1.16,0,0,1,0,.18v0h0l0,.06v0h0l0,.13-.06.15h0l0,.07v0l0,.06h0c0,.05-.05.09-.07.14a.25.25,0,0,0,0,.07h0l0,.06-.18.25,0,.05,0,0,0,0-.1.11h0Z"></path>
        <path
            style="fill:#263238"
            d="M402.61,391.54v-.24s0-.05,0-.07v0h0c0-.05,0-.09,0-.13h0v0a.36.36,0,0,1,0-.1v-.26l0-.05v-.09a.25.25,0,0,1,0-.07v-.06a.93.93,0,0,1,0-.13h0s0-.07,0-.11v-.06l0-.06v0l0-.05v0l0-.07,0,0h0a.61.61,0,0,1,0-.12h0l0,0,0-.09v0l0-.07,0-.06h0c0-.07.07-.13.1-.19v0l0-.05.05-.08,0-.06,0-.08,0,0v0a2.43,2.43,0,0,0,.14-.2h0l.11-.14h0l.08-.1,0,0h0a.52.52,0,0,1,.1-.11h0l0,0,.06-.07h0l0-.05,0-.05h0l.05-.05,0,0,0,0,.05-.05,0,0,0,0,.05,0,0,0,0,0,.05,0,0,0,0,0,.05,0h0l.06,0,0,0h0l.1-.07h0l.1-.06,0,0,.08,0,0,0,0,0h0l.05,0h.05l.1,0h0l.1,0h1l0,0h0l.06,0h0l.1.05,2.95,1.72h0l-.23-.1h0l-.07,0h-.68l-.08,0h0l-.09,0h0l-.1,0,0,0h0l-.07,0h0l-.11.05h0l-.15.08,0,0-.07,0h0l-.16.11h0l-.11.08-.07.06h0l-.05,0h0l0,0h0l-.05.05h0l0,0,0,0h0l-.09.09,0,0h0l-.11.11h0a3.58,3.58,0,0,0-.26.29h0l0,.05h0a1.33,1.33,0,0,0-.14.19h0a3.71,3.71,0,0,0-.23.32h0l0,.07h0a4.94,4.94,0,0,0-.41.79h0l0,0v0c-.05.12-.1.25-.14.38h0v0l0,.05v.06h0l0,.12v0h0v.05h0v.09h0v.06h0v.06s0,0,0,.08h0v0a.3.3,0,0,0,0,.1h0v0a.78.78,0,0,1,0,.16h0v0c0,.06,0,.13,0,.19v0h0v.18h0v.13h0v.06a.17.17,0,0,1,0,.07h0s0,.05,0,.07v.06h0s0,.05,0,.08v0h0a.31.31,0,0,1,0,.08v0h0s0,.06,0,.08v0h0l0,.08v0h0l.08.17s0,0,0,0h0l0,0,0,0h0l0,0,0,0h0l0,.05,0,0h0l0,.05,0,0h0l0,0,0,0h0s0,0,0,0l0,0h0l0,0,0,0-2.95-1.72-.07,0,0,0-.05,0,0,0a.12.12,0,0,1-.05-.05h0L403,393v0l0-.05,0,0,0-.06h0a.56.56,0,0,1,0-.08h0l0-.09h0a1.12,1.12,0,0,0-.05-.13h0v0l0-.08v0a.19.19,0,0,1,0-.07v-.06a.13.13,0,0,0,0-.06v-.27a.15.15,0,0,1,0-.07v0h0v-.12h0Z"></path>
        <path
            style="fill:#37474f"
            d="M406.2,394.9l0,0a1.73,1.73,0,0,0,1.81-.15,5.43,5.43,0,0,0,2.47-4.28,1.75,1.75,0,0,0-.72-1.6l-.23-.1h0l-.07,0h-.68l-.08,0h0l-.09,0h0l-.1,0,0,0-.07,0h0l-.11.05h0l-.15.08,0,0-.07,0-.16.11h0l-.11.08-.07.06-.05,0,0,0h0l-.05.05,0,0,0,0h0l-.09.09,0,0h0l-.11.11h0a3.58,3.58,0,0,0-.26.29l0,.06h0a1.33,1.33,0,0,0-.14.19h0a3.71,3.71,0,0,0-.23.32l0,.07a4.94,4.94,0,0,0-.41.79l0,0v0c-.05.12-.1.25-.14.38v0l0,.05v.06h0l0,.12v0h0v.14h0v.12s0,0,0,.08v0a.3.3,0,0,0,0,.1h0v0a.78.78,0,0,1,0,.16v0c0,.06,0,.13,0,.19v.2h0v.19a.17.17,0,0,1,0,.07s0,.05,0,.07v.06s0,.05,0,.08v0a.31.31,0,0,1,0,.08v0s0,.06,0,.08v0l0,.08v0l.08.17a.08.08,0,0,1,0,0l0,0,0,.05,0,0,0,0,0,.05,0,0,0,.05,0,0,0,0,0,0s0,0,0,0Zm2.29-1.82a2.33,2.33,0,0,1-.44.35c-.59.34-1.08.18-1.25-.34a1.22,1.22,0,0,1-.06-.41v-.09h0v-.13h0a.13.13,0,0,0,0-.06h0v-.14h0a.29.29,0,0,1,0-.09h0V392h0l0-.1v0l0-.06v0h0a.14.14,0,0,1,0-.06v0l0-.05h0l0,0,0,0,.06-.1v0a.41.41,0,0,1,.05-.09l0,0h0a.41.41,0,0,1,.07-.11h0l.05-.06,0,0h0l.08-.09h0l0,0,0,0,0,0,0,0,0,0h0l0,0,0,0h0l0,0h0l0,0,0,0h0l0,0,0,0,0,0h0l0,0H408l0,0h0l0,0h0l.05,0h0l.05,0h0l0,0H409l0,0h0a.12.12,0,0,1,.05.05h0s0,0,0,0h0l.05.06h0a1.09,1.09,0,0,1,.08.15h0l0,.05h0l0,.05h0v.06h0V391h0v.06h0v.07h0v.12a.13.13,0,0,1,0,.06h0v.12a1.06,1.06,0,0,1,0,.19v0h0l0,.06v0h0l0,.13-.06.15h0l0,.07v0l0,.06h0c0,.05-.05.09-.07.14a.25.25,0,0,0,0,.07h0l0,.06-.18.25,0,.05,0,0,0,0-.1.11h0l-.05.05h0Z"></path>
        <path
            style="fill:#f5f5f5"
            d="M387.94,404.65h0a2.1,2.1,0,0,1-.45.35c-.58.34-1.08.18-1.24-.33a1.31,1.31,0,0,1-.06-.41v-.1h0V404h0s0,0,0-.06v0h0v-.05h0v-.08h0a.31.31,0,0,0,0-.08h0v-.15h0v0h0a.49.49,0,0,0,0-.11h0v0l0-.05v0h0l0-.07h0l0-.05h0l0,0,0,0a.31.31,0,0,0,.05-.1h0a.41.41,0,0,1,.05-.09l0-.06h0l.07-.11h0l0-.06,0,0h0a.6.6,0,0,1,.08-.08h0l0-.05,0,0,0,0,0,0,0,0h0l0,0h0v0l0,0h0l0,0,0,0h0l0,0,0,0,0,0h0l0,0h0l0,0,0,0h0l0,0h0l0,0h0l0,0h0l0,0h0l0,0h.6l0,0h0l.05,0h0l.06,0h0s0,0,0,0h0l.05.07h0a1,1,0,0,1,.08.15h0v0l0,0h0v.06h0v.06h0v0h0v.12h0v.06h0v.12a.13.13,0,0,1,0,.06h0v0a.13.13,0,0,1,0,.06v0a1.62,1.62,0,0,1,0,.19v0h0s0,0,0,.07v0h0a.93.93,0,0,0,0,.13l-.06.15v0h0l0,.06v0l0,.07h0a.83.83,0,0,0-.07.13l-.05.08h0l0,.06-.18.26,0,0,0,0,0,0-.1.12h0Z"></path>
        <path
            style="fill:#263238"
            d="M382,403.13v-.24s0-.05,0-.07v0h0a.51.51,0,0,0,0-.13h0v0s0-.07,0-.1v-.31l0-.06v0l0-.07V402h0a.93.93,0,0,0,0-.13h0v0s0-.07,0-.11v-.06l0-.06,0,0,0-.05v0l0-.07,0,0h0l.06-.12h0l0,0,0-.09v0l0-.07,0-.06h0l.11-.19v0l0-.05.05-.07a.43.43,0,0,1,0-.07l.05-.08,0,0v0l.14-.21h0l.11-.13h0l.08-.1,0,0h0l.09-.11h0l0,0,.06-.07h0l.05,0,0,0,0,0,.05-.05,0,0,0,0,.05,0,0,0,0,0,.06-.05,0,0,0,0,0,0,0,0,0,0,0,0,0,0,.05,0,0,0h0l.11-.07h0l.1-.06h0l.08,0h0l0,0,0,0,.05,0,0,0h0l.1,0h0l.1,0H385l0,0h.84l.07,0h.09l.06,0h0l.1,0,3,1.72h0a.88.88,0,0,0-.22-.1h0l-.07,0h-.68l-.08,0h0l-.09,0h0l-.1,0-.05,0h0l-.07,0h0l-.11.06h0l-.15.08,0,0-.07,0h0l-.16.11h0l-.11.08L387,401h0l-.05,0h0l0,0h0l-.05,0h0l0,0,0,0h0l-.09.08,0,0v0h0l-.11.11h0l-.27.3h0l0,0h0l-.15.19h0l-.22.32h0l0,.07h0a6.09,6.09,0,0,0-.42.8h0v0h0c-.05.13-.1.25-.14.38h0v0l0,.06v0h0l0,.12v0h0v.05h0v0l0,.05h0v.05h0v.06s0,.06,0,.09h0v0a.44.44,0,0,0,0,.1h0v0h0c0,.06,0,.11,0,.17h0v0c0,.07,0,.13,0,.2h0V405h0v.13h0v0a.2.2,0,0,1,0,.07h0a.15.15,0,0,0,0,.07v.06h0l0,.08v0h0s0,.06,0,.09v0h0s0,.06,0,.09v0h0l0,.08v0h0c0,.06.05.12.08.17l0,.05h0l0,0s0,0,0,.05h0l0,0,0,0h0l0,0,0,0h0l0,0,0,0h0l0,0,0,0h0l0,0,0,0h0l.05,0,0,0-2.95-1.71-.07,0,0,0-.05,0h0l-.06-.05h0l-.07-.07v0l-.05-.05v0l-.05-.06v0h0l-.05-.09h0a.3.3,0,0,1,0-.08h0l-.05-.12v-.05l0-.08v-.05s0,0,0-.07v-.49h0s0-.08,0-.12h0S382,403.17,382,403.13Z"></path>
        <path
            style="fill:#37474f"
            d="M385.62,406.49l.05,0a1.75,1.75,0,0,0,1.81-.15,5.44,5.44,0,0,0,2.47-4.29,1.72,1.72,0,0,0-.73-1.59.88.88,0,0,0-.22-.1h0l-.07,0h-.68l-.08,0h0l-.09,0h0l-.1,0-.05,0-.07,0h0l-.11.06h0l-.15.08,0,0-.07.05-.16.11h0l-.11.08L387,401l-.05,0,0,0h0l-.05,0,0,0,0,0h0l-.09.08,0,0v0l-.11.11h0l-.27.3,0,0h0l-.15.19h0l-.22.32,0,.07a6.09,6.09,0,0,0-.42.8v0h0c-.05.13-.1.25-.14.38v0l0,.06v0h0l0,.12v0h0V404l0,.05h0v.11s0,.06,0,.09v0a.44.44,0,0,0,0,.1v0h0c0,.06,0,.11,0,.17v0c0,.07,0,.13,0,.2h0V405h0v.19a.2.2,0,0,1,0,.07.15.15,0,0,0,0,.07v.06l0,.08v0s0,.06,0,.09v0s0,.06,0,.09v0l0,.08v0c0,.06.05.12.08.17l0,.05,0,0,0,.05,0,0,0,0,0,0,0,0,0,0,0,0,0,0,0,0,0,0Zm2.3-1.82a2.1,2.1,0,0,1-.45.35c-.58.34-1.08.18-1.24-.33a1.31,1.31,0,0,1-.06-.41v-.1h0V404h0s0,0,0-.06v0h0v-.05h0v-.08h0a.31.31,0,0,0,0-.08h0v-.15h0v0h0a.49.49,0,0,0,0-.11h0v0l0-.05v0h0l0-.07h0l0-.05h0l0,0,0,0a.31.31,0,0,0,.05-.1h0a.41.41,0,0,1,.05-.09l0-.06h0l.07-.11h0l0-.06,0,0h0a.6.6,0,0,1,.08-.08h0l0-.05,0,0,0,0,0,0,0,0h0l0,0h0v0l0,0h0l0,0,0,0h0l0,0,0,0,0,0h0l0,0h0l0,0,0,0h0l0,0h0l0,0h0l0,0h0l0,0h0l0,0h.6l0,0h0l.05,0h0l.06,0h0s0,0,0,0h0l.05.07h0a1,1,0,0,1,.08.15h0v0l0,0h0a.06.06,0,0,1,0,0v0h0v.06h0v0h0v.12h0v.06h0v.12a.13.13,0,0,1,0,.06h0v0a.13.13,0,0,1,0,.06v0a1.62,1.62,0,0,1,0,.19v0h0s0,0,0,.07v0h0a.93.93,0,0,0,0,.13l-.06.15v0h0l0,.06v0l0,.07h0a.83.83,0,0,0-.07.13l-.05.08h0l0,.06-.18.26,0,0,0,0,0,0-.1.12h0l-.05,0h0Z"></path>
        <polygon
            style="fill:#FF8700"
            points="390.73 385.11 386.88 387.33 370.74 377.96 374.59 375.74 397.45 362.54 413.58 371.92 390.73 385.11"></polygon>
        <polygon
            style="fill:#fff;opacity:0.5"
            points="390.73 385.11 386.88 387.33 370.74 377.96 374.59 375.74 397.45 362.54 413.58 371.92 390.73 385.11"></polygon>
        <polygon style="fill:#FF8700"
            points="379.58 402.04 363.45 392.66 368.24 386.62 384.38 395.99 379.58 402.04"></polygon>
        <polygon style="fill:#fff;opacity:0.30000000000000004"
            points="379.58 402.04 363.45 392.66 368.24 386.62 384.38 395.99 379.58 402.04"></polygon>
        <polygon style="fill:#FF8700"
            points="363.45 392.66 379.58 402.04 379.11 408.4 362.98 399.03 363.45 392.66"></polygon>
        <polygon style="opacity:0.1"
            points="363.45 392.66 379.58 402.04 379.11 408.4 362.98 399.03 363.45 392.66"></polygon>
        <polygon
            style="fill:#FF8700"
            points="384.38 395.99 414.24 378.75 415.09 387.63 410.78 390.12 409.72 387.46 407.96 388.48 405.47 389.91 404.43 393.79 390.35 401.92 389.28 399.26 387.52 400.27 385.04 401.71 384 405.58 379.11 408.4 379.58 402.04 384.38 395.99"></polygon>
        <polygon
            style="fill:#fff;opacity:0.2"
            points="384.38 395.99 414.24 378.75 415.09 387.63 410.78 390.12 409.72 387.46 407.96 388.48 405.47 389.91 404.43 393.79 390.35 401.92 389.28 399.26 387.52 400.27 385.04 401.71 384 405.58 379.11 408.4 379.58 402.04 384.38 395.99"></polygon>
        <path
            style="fill:#FF8700"
            d="M367.63,397.57h0l7,4.05h0a1.19,1.19,0,0,1-1.78.93l-3.7-2.15A3,3,0,0,1,367.63,397.57Z"></path>
        <path
            style="opacity:0.4"
            d="M367.63,397.57h0l7,4.05h0a1.19,1.19,0,0,1-1.78.93l-3.7-2.15A3,3,0,0,1,367.63,397.57Z"></path>
        <path
            style="fill:#fff"
            d="M364.34,396.13l.05-.71a.54.54,0,0,1,.8-.42l1.74,1a.5.5,0,0,1,.26.49l-.05.71a.53.53,0,0,1-.79.42l-1.75-1A.55.55,0,0,1,364.34,396.13Z"></path>
        <path
            style="fill:#FF8700"
            d="M366.2,399.57l-1.74-1a.51.51,0,0,1-.26-.5v-.18a.53.53,0,0,1,.8-.42l1.74,1a.53.53,0,0,1,.26.5v.18A.53.53,0,0,1,366.2,399.57Z"></path>
        <path
            style="fill:#FF8700"
            d="M378.18,405.46l0,.18a.52.52,0,0,1-.79.42l-2-1.18a.53.53,0,0,1-.26-.5v-.18a.53.53,0,0,1,.8-.42l2,1.18A.55.55,0,0,1,378.18,405.46Z"></path>
        <path
            style="fill:#fff;opacity:0.5"
            d="M366.2,399.57l-1.74-1a.51.51,0,0,1-.26-.5v-.18a.53.53,0,0,1,.8-.42l1.74,1a.53.53,0,0,1,.26.5v.18A.53.53,0,0,1,366.2,399.57Z"></path>
        <path
            style="fill:#fff"
            d="M376.06,401.32l2,1.19a.52.52,0,0,1,.26.49l-.05.71a.53.53,0,0,1-.8.42l-2-1.18a.55.55,0,0,1-.26-.5l.05-.71A.53.53,0,0,1,376.06,401.32Z"></path>
        <path
            style="fill:#fff;opacity:0.5"
            d="M378.18,405.46l0,.18a.52.52,0,0,1-.79.42l-2-1.18a.53.53,0,0,1-.26-.5v-.18a.53.53,0,0,1,.8-.42l2,1.18A.55.55,0,0,1,378.18,405.46Z"></path>
        <polygon
            style="fill:#455a64"
            points="376.19 381.12 373.54 379.58 370.74 377.96 370.56 378.6 370.31 379.45 368.24 386.62 376.19 391.24 377.13 391.78 380.63 393.82 383.29 395.36 384.38 395.99 386.88 387.33 376.19 381.12"></polygon>
        <polygon
            style="fill:#fff;opacity:0.2"
            points="376.19 381.12 373.54 379.58 370.74 377.96 370.56 378.6 370.31 379.45 368.24 386.62 376.19 391.24 377.13 391.78 380.63 393.82 383.29 395.36 384.38 395.99 386.88 387.33 376.19 381.12"></polygon>
        <polygon
            style="fill:#455a64"
            points="413.58 371.92 405.62 376.51 404.16 377.36 402.23 378.47 401.71 378.77 394.04 383.2 392.58 384.05 390.73 385.11 390.64 385.16 390.12 385.46 386.88 387.33 384.38 395.99 392.92 391.06 393.44 390.76 395.37 389.65 396.83 388.8 404.5 384.38 405.02 384.07 406.95 382.96 408.42 382.12 414.24 378.75 413.58 371.92"></polygon>
    </g>
</svg>